<svg width="48" height="48" viewBox="0 0 48 48" fill="none" xmlns="http://www.w3.org/2000/svg">
<g clip-path="url(#clip0_44_4714)">
<path d="M25.9686 -0.000146485C26.1244 -0.000146485 26.2814 -0.000146485 26.4373 -0.000146485C26.6072 0.322119 26.7771 0.643213 26.9963 1.0604C27.2459 1.0604 27.6338 1.05454 28.0205 1.06157C28.535 1.07212 28.7975 1.28188 28.801 1.67095C28.8057 2.06235 28.549 2.27212 28.0299 2.28149C27.6314 2.2897 27.233 2.28267 26.8451 2.28267C26.8451 2.7561 26.8451 3.1522 26.8451 3.56704C27.5846 3.56704 28.2865 3.56704 28.9896 3.56704C29.3588 3.56704 29.6354 3.70884 29.708 4.09438C29.7807 4.48462 29.4947 4.76938 29.0248 4.77642C28.2971 4.78579 27.5682 4.77876 26.8334 4.77876C26.8334 5.24399 26.8334 5.64243 26.8334 6.08423C27.2119 6.08423 27.5682 6.08423 27.9232 6.08423C28.2982 6.08423 28.6732 6.07602 29.0482 6.08657C29.517 6.10063 29.817 6.44868 29.6975 6.84243C29.5979 7.16821 29.3541 7.29712 29.0166 7.2936C28.2889 7.28657 27.5611 7.29126 26.8346 7.29126C26.8346 7.75649 26.8346 8.1561 26.8346 8.60142C27.0104 8.60142 27.1627 8.60142 27.315 8.60142C27.9244 8.60259 28.5338 8.59673 29.1432 8.60727C29.4713 8.61313 29.6682 8.80298 29.7092 9.12056C29.7549 9.46743 29.5662 9.69009 29.2463 9.78149C29.0857 9.8272 28.9064 9.81079 28.7354 9.81196C28.1014 9.81431 27.4686 9.81313 26.8463 9.81313C26.8463 10.2784 26.8463 10.6745 26.8463 11.1057C27.2693 11.1057 27.6584 11.101 28.0463 11.1069C28.5432 11.1139 28.7881 11.3026 28.8033 11.6764C28.8186 12.0725 28.5561 12.3081 28.0568 12.3221C27.6561 12.3338 27.2541 12.3245 26.8334 12.3245C26.8334 14.8979 26.8334 17.4163 26.8334 19.9944C27.8014 19.9944 28.7494 19.9932 29.6975 19.9944C30.5412 19.9956 30.6561 20.1081 30.6561 20.9307C30.6561 25.0932 30.6467 29.2569 30.6619 33.4194C30.6678 35.0225 30.3338 36.5424 29.6377 37.978C29.3143 38.6436 28.9146 39.2729 28.5432 39.9291C30.4885 39.9291 32.435 39.9291 34.4447 39.9291C33.8307 39.1639 33.4861 38.3553 33.485 37.4377C33.4768 32.7291 33.4756 28.0206 33.485 23.312C33.4861 22.4834 33.8705 21.826 34.6111 21.451C34.9404 21.2846 35.0049 21.0959 35.0037 20.7678C34.9932 17.6178 34.9978 14.469 34.9978 11.319C34.9978 10.1764 35.0248 10.1471 36.158 10.092C36.185 10.0909 36.2107 10.0674 36.2799 10.0323C36.2799 9.88462 36.2799 9.71704 36.2799 9.54829C36.2799 7.75532 36.2775 5.96235 36.2811 4.16938C36.2834 2.59087 37.0229 1.51274 38.4912 0.933838C39.2857 0.620947 40.0814 0.308057 40.8771 -0.00366211C41.2205 -0.00366211 41.565 -0.00366211 41.9084 -0.00366211C41.94 0.0256348 41.9658 0.0689941 42.0033 0.0842285C43.1811 0.557666 43.5936 1.16704 43.5947 2.43384C43.5947 4.81978 43.5947 7.20571 43.5947 9.59048C43.5947 9.75571 43.5947 9.91977 43.5947 10.1026C43.8186 10.1026 43.9732 10.1002 44.1291 10.1026C44.6354 10.1108 44.8369 10.2995 44.8686 10.7987C44.8779 10.9381 44.8709 11.0788 44.8709 11.2194C44.8709 14.4163 44.8732 17.612 44.8662 20.8088C44.865 21.0983 44.9201 21.2776 45.2154 21.4241C46.0158 21.8225 46.3908 22.5163 46.392 23.3987C46.3967 28.0452 46.3967 32.6916 46.392 37.3381C46.3908 38.169 46.1494 38.9331 45.6596 39.6127C45.5916 39.7065 45.5365 39.8084 45.4393 39.9655C46.0205 39.9655 46.5326 39.9831 47.0436 39.9596C47.4268 39.942 47.7467 40.0311 48.0021 40.3217C48.0021 42.7229 48.0021 45.1252 48.0021 47.5264C47.8111 47.8065 47.5545 47.9049 47.2076 47.9049C31.7365 47.8979 16.2666 47.8979 0.795508 47.9049C0.448633 47.9049 0.191992 47.8065 0.000976562 47.5264C0.000976562 45.1252 0.000976562 42.7229 0.000976562 40.3217C0.255273 40.0299 0.576367 39.9385 0.95957 39.9596C1.38145 39.9831 1.80566 39.9655 2.30605 39.9655C1.77402 39.1791 1.55254 38.4174 1.62402 37.5784C1.6791 36.9256 1.73184 36.2741 1.77402 35.6202C2.06582 31.1108 2.35293 26.6002 2.64355 22.0897C2.74434 20.5182 3.75332 19.3651 5.2627 19.1178C5.5627 19.0686 5.87207 19.0768 6.19668 19.0569C6.19668 18.8436 6.19668 18.6737 6.19668 18.5038C6.19668 15.3538 6.19551 12.2038 6.19785 9.05376C6.19902 7.64985 7.02402 6.82134 8.4373 6.81548C9.78145 6.80845 11.1244 6.80962 12.4686 6.81782C12.7158 6.81899 12.9725 6.83306 13.2068 6.90102C14.1631 7.17524 14.6963 7.9604 14.6975 9.07485C14.701 12.2249 14.6986 15.3749 14.6986 18.5249C14.6986 18.7041 14.6986 18.8834 14.6986 19.0862C14.8814 19.0862 14.9893 19.085 15.0971 19.0862C16.8162 19.1155 18.0596 20.1959 18.1979 21.894C18.4146 24.5811 18.5693 27.2729 18.7486 29.9624C18.8904 32.0928 19.0299 34.2233 19.1693 36.3538C19.249 37.5749 19.4705 38.817 18.5799 39.935C20.3998 39.935 22.1354 39.935 23.9295 39.935C23.8135 39.7639 23.7279 39.6397 23.6447 39.5155C22.433 37.712 21.7557 35.7374 21.7545 33.553C21.7521 29.3741 21.7557 25.1952 21.7568 21.0163C21.7568 20.9073 21.7545 20.7983 21.7568 20.6893C21.7697 20.2077 21.9537 20.0061 22.4377 19.9956C23.0775 19.9815 23.7186 19.9909 24.3596 19.9909C24.7615 19.9909 25.1623 19.9909 25.5783 19.9909C25.5783 17.4116 25.5783 14.892 25.5783 12.3209C25.1389 12.3209 24.7205 12.3338 24.3045 12.3174C23.8428 12.2987 23.5826 12.0502 23.6119 11.6694C23.6447 11.237 23.9295 11.0987 24.3232 11.101C24.7393 11.1045 25.1564 11.1022 25.5725 11.1022C25.5725 10.637 25.5725 10.2397 25.5725 9.80845C24.8729 9.80845 24.2037 9.81079 23.5346 9.80727C22.9873 9.80493 22.7061 9.60102 22.6967 9.20727C22.6861 8.80181 22.9521 8.60024 23.5064 8.59907C24.1896 8.59673 24.8729 8.59907 25.5725 8.59907C25.5725 8.14087 25.5725 7.73071 25.5725 7.29009C24.8412 7.29009 24.1404 7.2936 23.4396 7.28892C22.9604 7.2854 22.7049 7.07681 22.6967 6.70063C22.6885 6.30571 22.9533 6.08657 23.4584 6.08306C24.1568 6.07954 24.8564 6.08188 25.5678 6.08188C25.5678 5.6272 25.5678 5.21821 25.5678 4.77759C25.1764 4.77759 24.8189 4.77759 24.4627 4.77759C24.1029 4.77759 23.7443 4.77407 23.3846 4.77759C23.0049 4.7811 22.7459 4.62759 22.7002 4.23032C22.6557 3.84126 22.9451 3.57407 23.4221 3.56704C24.1357 3.55767 24.8482 3.5647 25.5713 3.5647C25.5713 3.11353 25.5713 2.7186 25.5713 2.27095C25.0908 2.27095 24.6361 2.30845 24.192 2.25337C23.9975 2.22993 23.7361 2.05532 23.6682 1.8854C23.6002 1.71313 23.6705 1.40728 23.7971 1.25962C23.9143 1.12251 24.1826 1.07798 24.3889 1.06274C24.7861 1.03345 25.1869 1.05454 25.3943 1.05454C25.6346 0.612744 25.8022 0.306885 25.9686 -0.000146485ZM1.23848 46.6674C16.4377 46.6674 31.5947 46.6674 46.7611 46.6674C46.7611 44.8381 46.7611 43.0381 46.7611 41.2123C31.5783 41.2123 16.4213 41.2123 1.23848 41.2123C1.23848 43.0381 1.23848 44.8381 1.23848 46.6674ZM34.6908 30.4147C34.6908 32.6905 34.685 34.9674 34.6932 37.2432C34.699 38.885 35.7854 39.9655 37.4236 39.9702C39.0479 39.9748 40.6756 39.9151 42.2963 39.9877C43.917 40.0604 45.2014 38.8803 45.1885 37.1096C45.1557 32.6202 45.1779 28.1295 45.1768 23.6401C45.1768 22.6838 44.8639 22.3674 43.9193 22.3674C41.2639 22.3663 38.6084 22.3663 35.9529 22.3674C35.0037 22.3674 34.6908 22.6815 34.6908 23.6342C34.6908 25.8936 34.6908 28.1542 34.6908 30.4147ZM9.84121 25.385C7.74824 25.385 5.71152 25.385 3.65605 25.385C3.52832 27.3268 3.40176 29.2381 3.2752 31.1506C3.13457 33.2963 3.01387 35.4444 2.84512 37.5889C2.73496 38.9928 3.5834 39.969 5.00605 39.9702C8.63066 39.9737 12.2564 39.9737 15.8811 39.9702C17.2568 39.969 18.0912 39.0924 18.0197 37.7155C17.9646 36.6573 17.8885 35.6002 17.8205 34.542C17.6541 31.9452 17.4889 29.3471 17.3213 26.7502C17.292 26.2897 17.2475 25.8315 17.2111 25.3838C15.1369 25.3838 13.1131 25.3838 11.0541 25.3838C11.0541 26.5323 11.0471 27.6526 11.0646 28.7729C11.067 28.8924 11.1889 29.0389 11.2955 29.1245C12.7428 30.2963 13.4283 31.8338 13.3803 33.6643C13.3393 35.1819 12.11 36.4522 10.699 36.5741C9.24238 36.7006 7.94863 35.7057 7.57715 34.1706C7.1834 32.544 8.12676 30.1393 9.53418 29.1491C9.6666 29.0553 9.82715 28.8831 9.83066 28.7448C9.85176 27.6385 9.84121 26.5323 9.84121 25.385ZM22.9838 21.2401C22.9756 21.4124 22.9627 21.5647 22.9627 21.717C22.9615 25.6616 22.9463 29.6073 22.9674 33.5518C22.9791 35.885 23.8076 37.9299 25.3135 39.7053C25.6416 40.092 26.7549 40.1014 27.0807 39.7182C28.5783 37.9592 29.4197 35.9307 29.4373 33.6151C29.4654 29.6389 29.4443 25.6627 29.4443 21.6866C29.4443 21.5377 29.4443 21.3889 29.4443 21.2389C27.2529 21.2401 25.133 21.2401 22.9838 21.2401ZM43.6158 11.3518C41.1373 11.3518 38.6986 11.3518 36.2635 11.3518C36.2635 14.6342 36.2635 17.8803 36.2635 21.1252C38.7338 21.1252 41.1631 21.1252 43.6158 21.1252C43.6158 17.8616 43.6158 14.6249 43.6158 11.3518ZM7.40371 19.0592C9.45215 19.0592 11.442 19.0592 13.4201 19.0592C13.4424 18.9971 13.4611 18.969 13.4611 18.9397C13.4646 15.6034 13.4729 12.2659 13.4623 8.92954C13.46 8.31899 13.1283 8.03892 12.5014 8.03657C11.1572 8.03071 9.81426 8.03306 8.47012 8.0354C7.69316 8.03657 7.40488 8.32954 7.40371 9.1147C7.40137 11.251 7.40254 13.3874 7.40254 15.5237C7.40371 16.6897 7.40371 17.8581 7.40371 19.0592ZM42.3502 10.0909C42.3654 9.99829 42.3795 9.95376 42.3795 9.90923C42.3807 7.33931 42.3877 4.76938 42.3783 2.19946C42.376 1.47993 41.7045 1.03228 40.9955 1.28071C40.2467 1.54321 39.5049 1.82798 38.7771 2.14204C37.9205 2.51001 37.4869 3.17563 37.4893 4.12017C37.4951 5.97407 37.4904 7.82681 37.4916 9.68071C37.4916 9.81431 37.5103 9.9479 37.5209 10.092C39.1451 10.0909 40.7318 10.0909 42.3502 10.0909ZM9.80723 24.1241C9.80723 22.8315 9.80723 21.5799 9.80723 20.3061C8.36934 20.3061 6.96426 20.2827 5.56035 20.3155C4.79746 20.3342 4.08496 20.8944 3.96074 21.6069C3.81777 22.426 3.79434 23.2663 3.71699 24.1229C5.78652 24.1241 7.78105 24.1241 9.80723 24.1241ZM17.1432 24.1206C17.0939 23.4303 17.0576 22.7659 16.9955 22.1038C16.8877 20.9483 16.1822 20.3061 15.0279 20.3026C13.842 20.2991 12.6561 20.3002 11.4713 20.3026C11.3377 20.3026 11.2041 20.3202 11.0928 20.3272C11.0928 21.6256 11.0928 22.8772 11.0928 24.1194C13.1248 24.1206 15.117 24.1206 17.1432 24.1206ZM8.71152 33.0936C8.70215 34.4905 9.46855 35.3811 10.4553 35.3694C11.4361 35.3588 12.2447 34.4178 12.1791 33.3104C12.1111 32.1678 11.6775 31.1659 10.8795 30.3362C10.4998 29.9413 10.3451 29.9448 9.96191 30.3526C9.17559 31.1928 8.75605 32.1901 8.71152 33.0936Z" fill="#008080"/>
<path d="M0 47.5325C0.191016 47.8137 0.447656 47.911 0.794531 47.911C16.2656 47.904 31.7355 47.904 47.2066 47.911C47.5535 47.911 47.809 47.8114 48.0012 47.5325C48.0012 47.6883 48.0012 47.8442 48.0012 48.0001C32.0016 48.0001 16.0008 48.0001 0.00117187 48.0001C0 47.8442 0 47.6883 0 47.5325Z" fill="white"/>
<path d="M8.71202 33.0938C8.75655 32.1903 9.17608 31.1918 9.96358 30.354C10.3468 29.9461 10.5015 29.9426 10.8812 30.3375C11.6792 31.1672 12.1128 32.1692 12.1808 33.3118C12.2464 34.4192 11.439 35.359 10.4569 35.3707C9.46905 35.3813 8.70147 34.4907 8.71202 33.0938Z" fill="white"/>
</g>
<defs>
<clipPath id="clip0_44_4714">
<rect width="48" height="48" fill="white"/>
</clipPath>
</defs>
</svg>
