<svg width="48" height="48" viewBox="0 0 48 48" fill="none" xmlns="http://www.w3.org/2000/svg">
<g clip-path="url(#clip0_46_4762)">
<path d="M35.3712 39.5946C35.4205 38.6286 35.885 37.5629 36.7554 36.665C37.18 36.2297 37.3489 36.2251 37.7689 36.6469C38.651 37.5335 39.1296 38.6037 39.2046 39.8259C39.2774 41.0095 38.3835 42.014 37.2997 42.0253C36.2064 42.0389 35.3595 41.0866 35.3712 39.5946Z" fill="white"/>
<path d="M43.2165 0C43.7561 0.32198 44.3708 0.571402 44.8165 0.986348C45.396 1.526 45.6377 2.28787 45.4453 3.05881C45.2576 3.80934 45.023 4.57801 44.6335 5.24238C43.8171 6.63234 41.8746 6.92938 40.5444 5.94983C40.4177 5.85687 40.2981 5.75483 40.1432 5.63239C39.9532 6.13803 39.7632 6.6142 39.6013 7.09717C39.5708 7.18787 39.613 7.33752 39.6787 7.41235C40.0799 7.86131 40.3426 8.36242 40.4247 8.95649C40.4435 9.08574 40.5538 9.249 40.6711 9.31702C42.8294 10.5437 44.3872 12.2443 45.1403 14.5821C45.145 14.5957 45.1637 14.6025 45.2224 14.6524C45.3772 14.5594 45.5462 14.4551 45.7198 14.3553C46.6113 13.8406 47.6177 14.2646 47.7725 15.2578C48.535 20.1102 47.3409 24.4773 44.2652 28.3728C44.1479 28.5225 44.0212 28.663 43.8992 28.8104C43.8805 28.8331 43.8758 28.8671 43.8476 28.9329C43.9837 28.9601 44.1151 28.985 44.2464 29.0145C45.3608 29.2685 45.7737 30.3387 45.0277 31.1686C44.0189 32.2865 43.0077 33.4089 41.9051 34.4383C39.6764 36.5198 37.1684 38.2181 34.1679 39.1047C30.4189 40.2135 26.8318 39.9369 23.5239 37.7579C22.3907 37.0119 21.4852 36.0368 20.7344 34.894C20.2324 35.2047 19.857 35.4927 19.9086 36.1729C19.9884 37.2137 19.9391 38.2658 19.9227 39.3111C19.918 39.59 19.9978 39.7101 20.2957 39.7918C21.396 40.0933 22.4869 40.4289 23.5755 40.7713C24.1174 40.9414 24.3239 41.3042 24.1714 41.7236C24.0259 42.1205 23.6154 42.2565 23.0781 42.0978C21.9849 41.7735 20.8893 41.4538 19.7937 41.1364C18.8341 40.8597 18.4752 40.4063 18.4705 39.4403C18.4682 38.4608 18.4705 37.4812 18.4705 36.42C17.3772 36.9416 16.3239 37.3883 15.1579 37.3815C14.0107 37.3746 12.969 36.9416 11.8875 36.4246C11.8875 37.4495 11.8875 38.3973 11.8875 39.3428C11.8852 40.4471 11.5591 40.828 10.4728 41.1591C8.99953 41.6103 7.51214 42.0388 6.08809 42.608C5.36551 42.8959 4.70628 43.4129 4.12211 43.9344C3.37138 44.6079 3.12035 45.5851 3.27519 46.5715C11.2025 46.5715 19.1321 46.5715 27.0992 46.5715C27.2306 45.5103 26.9069 44.6056 26.1632 43.8347C25.6142 43.2678 25.5462 42.8982 25.9333 42.5581C26.3016 42.2338 26.7403 42.3381 27.2564 42.8733C28.2863 43.9412 28.6875 45.2224 28.6218 46.6554C28.5819 47.5057 28.0306 47.9977 27.1485 47.9977C19.179 48 11.2072 48 3.23765 47.9977C2.28282 47.9977 1.75261 47.4853 1.7268 46.5443C1.67754 44.6487 2.46346 43.159 4.06581 42.0683C5.50393 41.091 7.15554 40.6058 8.81419 40.1319C9.24821 40.0094 9.68927 39.9097 10.1092 39.7555C10.2429 39.7056 10.4118 39.5174 10.4142 39.3904C10.4377 38.1728 10.4353 36.9529 10.4189 35.7353C10.4165 35.5924 10.3157 35.4065 10.1984 35.3158C8.63824 34.1027 7.40657 32.6402 6.5268 30.8965C6.44469 30.7355 6.1749 30.5904 5.97548 30.5677C3.93443 30.3319 2.18428 28.985 1.77372 27.2549C1.67519 26.8377 1.65877 26.3797 1.72211 25.9557C1.77372 25.602 1.701 25.3389 1.53208 25.0396C0.370792 22.9876 -0.0632256 20.7677 -0.00222851 18.4526C0.0728448 15.6727 0.760235 13.0538 2.3485 10.6979C3.21654 9.40999 4.32153 8.34881 5.65408 7.51212C6.13267 7.21281 6.54323 7.25816 6.80129 7.62549C7.05701 7.99055 6.9444 8.39189 6.4705 8.69573C3.6576 10.4961 2.26639 13.149 1.70569 16.2623C1.26698 18.6998 1.37959 21.1124 2.37196 23.4365C2.44 23.5953 2.51507 23.7494 2.59249 23.9036C2.60422 23.9263 2.63941 23.9399 2.69806 23.9807C3.49806 23.178 4.47871 22.6883 5.61185 22.4479C5.72915 22.423 5.83472 22.1713 5.87226 22.0103C6.4095 19.7066 7.24469 17.5026 8.74381 15.6296C10.7684 13.1037 13.4899 11.7704 16.8377 11.8362C19.1368 11.8815 21.1708 12.7273 23.0382 13.9789C23.4113 14.2284 23.484 14.6274 23.2588 14.963C23.0265 15.3077 22.6019 15.3938 22.196 15.1331C21.0042 14.3689 19.7467 13.7476 18.3368 13.4551C16.2582 13.0221 14.2945 13.31 12.4506 14.3349C12.3849 14.3712 12.3239 14.4188 12.1878 14.5118C13.8957 14.3508 15.484 14.5322 16.894 15.3145C20.6734 17.4096 23.5849 20.2802 25.1098 24.314C25.1755 24.4886 25.2435 24.6678 25.267 24.8514C25.3162 25.2482 25.1309 25.5226 24.7297 25.6246C24.3473 25.7221 24.0588 25.5657 23.8992 25.2301C23.7514 24.9195 23.6576 24.5861 23.5215 24.271C22.9937 23.0579 22.311 21.9332 21.5016 20.9264C21.5579 21.813 21.7268 22.7246 21.6517 23.6179C21.5297 25.0759 21.2857 26.5271 21.0324 27.9692C20.6124 30.3682 20.8165 32.6379 22.3579 34.6628C23.8828 36.6649 25.945 37.8077 28.4764 38.166C32.1878 38.6898 35.4089 37.4948 38.372 35.4586C40.3896 34.0732 42.0998 32.3749 43.674 30.5405C43.7022 30.5065 43.7115 30.4589 43.7303 30.4135C42.0107 30.1754 41.7995 28.9079 42.874 27.7311C44.969 25.4342 46.074 22.6747 46.4353 19.6363C46.5878 18.3438 46.5714 17.0559 46.3673 15.6886C43.0406 17.5479 39.6904 16.9743 36.2981 15.8904C36.2324 16.0469 36.169 16.1829 36.1174 16.3235C35.2822 18.5343 34.4494 20.7428 33.6142 22.9536C33.3608 23.6225 32.9503 23.9694 32.3708 23.9603C31.7256 23.949 31.3503 23.5839 31.1063 23.0329C30.372 21.3709 29.8793 19.6499 29.769 17.8404C29.6822 16.4051 29.8934 15.0084 30.4728 13.6751C30.5291 13.5481 30.5761 13.4189 30.6418 13.2556C29.5297 12.6525 28.4365 12.0539 27.3409 11.462C24.6476 10.0086 21.9239 8.61864 18.9585 7.73886C15.8617 6.81827 12.7391 6.50536 9.56493 7.3738C9.10979 7.49851 8.70393 7.2763 8.6007 6.8931C8.49279 6.48949 8.70393 6.13803 9.17314 6.00879C11.0101 5.49861 12.8822 5.34442 14.7825 5.49634C18.9116 5.82285 22.6089 7.38741 26.1984 9.24219C27.8077 10.0721 29.389 10.9519 30.9819 11.809C31.1203 11.8838 31.2635 11.9495 31.4206 12.0266C32.2887 10.9065 33.3538 10.0358 34.5714 9.32836C34.6981 9.2558 34.7614 9.0676 34.8318 8.92248C35.0734 8.43951 35.3151 7.95427 35.5379 7.46223C35.6013 7.32392 35.6646 7.14479 35.6247 7.01554C35.4863 6.56885 35.301 6.13576 35.1602 5.77297C34.5737 6.01332 34.0154 6.3421 33.4101 6.46908C32.2136 6.7185 31.0054 6.10402 30.4799 5.03604C30.2171 4.50319 29.9966 3.94312 29.8464 3.37172C29.4758 1.96136 30.3086 0.571402 31.7444 0.117908C31.85 0.0838963 31.9532 0.0430819 32.0588 0.0068024C32.4154 0.0068024 32.7696 0.0068024 33.1262 0.0068024C34.4095 0.365062 35.0992 1.22897 35.484 2.43072C35.8547 3.58713 36.3309 4.7118 36.7602 5.85006C37.03 6.56205 37.0324 6.53711 37.8019 6.58699C38.1561 6.60966 38.2687 6.47588 38.372 6.18792C38.8294 4.92721 39.3573 3.6869 39.7725 2.41485C40.1643 1.21083 40.8611 0.355992 42.1467 0.0068024C42.5057 0 42.8599 0 43.2165 0ZM6.95613 25.7108C6.81771 30.9668 10.6113 34.4746 13.6189 35.6242C14.4353 35.9371 15.2682 36.055 16.1291 35.8146C17.5555 35.4156 18.7661 34.656 19.8453 33.6923C19.9391 33.6084 19.9579 33.3544 19.9063 33.2184C19.301 31.6062 19.2494 29.9555 19.5074 28.2798C19.7374 26.7856 20.0682 25.2959 20.1714 23.7925C20.3684 20.9106 19.3385 18.5025 16.779 16.8813C15.3714 15.9902 13.7808 15.5979 12.1151 16.0809C10.1421 16.6523 8.88927 18.0105 8.09865 19.8109C7.21419 21.813 7.01713 23.9354 6.95613 25.7108ZM35.1086 10.6911C33.6893 11.5233 32.5233 12.6275 31.8617 14.1694C31.1602 15.8065 31.0945 17.5116 31.4371 19.2236C31.6294 20.1827 31.9532 21.1169 32.2183 22.0625C32.2723 22.0556 32.3262 22.0488 32.3802 22.042C32.4857 21.7699 32.596 21.4978 32.6992 21.2235C33.8418 18.1964 34.9866 15.1694 36.1151 12.1355C36.1761 11.97 36.1784 11.6956 36.0775 11.5777C35.8054 11.2648 35.4605 11.004 35.1086 10.6911ZM43.6951 15.2351C43.6435 13.7794 41.6236 11.2716 40.1127 10.716C39.7937 11.004 39.4769 11.267 39.1954 11.5618C39.1039 11.6593 39.0382 11.8657 39.0805 11.9813C39.4605 13.0379 39.8594 14.09 40.2723 15.1353C40.3168 15.251 40.474 15.3825 40.596 15.4006C41.6423 15.5526 42.6769 15.4891 43.6951 15.2351ZM5.66111 29.0236C5.59308 27.357 5.52504 25.6745 5.45701 24.0034C4.18545 24.2324 3.11801 25.3866 3.15085 26.5634C3.18135 27.7334 4.39191 28.8785 5.66111 29.0236ZM42.25 5.08366C42.8224 5.08593 43.2494 4.84104 43.484 4.3422C43.6764 3.93405 43.8406 3.50777 43.9673 3.07468C44.1596 2.42165 43.796 1.74595 43.1649 1.51013C42.494 1.26071 41.769 1.52374 41.4664 2.1745C41.2623 2.61212 41.0863 3.06788 40.9714 3.53271C40.7696 4.34447 41.3913 5.07232 42.25 5.08366ZM34.318 3.7776C34.311 3.71411 34.325 3.5826 34.2852 3.46696C34.1421 3.05428 34.0013 2.63933 33.8253 2.24252C33.5321 1.58269 32.8799 1.28565 32.2136 1.48066C31.5051 1.687 31.1086 2.28334 31.2846 2.99986C31.4066 3.49417 31.5989 3.98167 31.8289 4.43743C32.0986 4.97482 32.7579 5.2061 33.3585 5.04738C33.9121 4.90226 34.3039 4.40569 34.318 3.7776ZM38.9608 9.28301C38.9585 8.56422 38.3391 7.96788 37.6072 7.98148C36.8846 7.99509 36.3004 8.56876 36.2934 9.27394C36.2863 10.0063 36.8752 10.5936 37.6212 10.5959C38.3626 10.6004 38.9632 10.0109 38.9608 9.28301ZM37.6283 12.3123C37.3303 13.1014 37.0676 13.7953 36.786 14.5367C37.4148 14.7272 38.0013 14.9041 38.6816 15.1104C38.318 14.1399 37.9919 13.2737 37.6283 12.3123Z" fill="#008080"/>
<path d="M42.1494 0C40.8638 0.346922 40.1647 1.20402 39.7752 2.40805C39.36 3.68237 38.8321 4.9204 38.3747 6.18111C38.2714 6.46908 38.1588 6.60286 37.8046 6.58019C37.0351 6.5303 37.0327 6.55525 36.7629 5.84326C36.3312 4.70499 35.855 3.58033 35.4867 2.42392C35.1019 1.22216 34.4122 0.355992 33.1289 0C36.1365 0 39.1418 0 42.1494 0Z" fill="white"/>
<path d="M38.9605 9.28295C38.9628 10.0085 38.3622 10.5981 37.6209 10.5958C36.8749 10.5913 36.286 10.0063 36.293 9.27389C36.3001 8.5687 36.8842 7.99503 37.6068 7.98143C38.3411 7.96782 38.9605 8.56417 38.9605 9.28295Z" fill="white"/>
<path d="M37.6284 12.3123C37.9897 13.2737 38.3181 14.1398 38.6817 15.1103C38.0014 14.904 37.4125 14.7271 36.7861 14.5366C37.0677 13.7929 37.3304 13.0991 37.6284 12.3123Z" fill="white"/>
<path d="M15.1746 32.0075C14.398 31.7966 13.6496 31.6243 12.9271 31.384C12.4485 31.2252 12.2913 30.8398 12.4508 30.4566C12.6244 30.0371 12.9974 29.8829 13.4878 30.0892C14.6162 30.5654 15.7306 30.5767 16.8614 30.096C17.3587 29.8852 17.7294 30.028 17.9124 30.4362C18.0884 30.833 17.9288 31.223 17.4197 31.393C16.6925 31.6311 15.9441 31.7989 15.1746 32.0075Z" fill="#008080"/>
<path d="M11.6833 20.5205C12.2769 20.7246 12.8493 20.8788 13.3818 21.1169C13.8018 21.3051 13.9027 21.7177 13.7103 22.0669C13.5203 22.4116 13.1097 22.559 12.7085 22.3526C12.0047 21.9898 11.3384 21.9944 10.637 22.3617C10.2382 22.5703 9.83933 22.4116 9.64695 22.0533C9.45927 21.7041 9.56484 21.296 9.98713 21.1123C10.5197 20.8765 11.0921 20.7223 11.6833 20.5205Z" fill="#008080"/>
<path d="M12.4294 24.9739C12.4177 25.1599 12.4224 25.3503 12.3919 25.534C12.3309 25.9059 12.0845 26.1235 11.7045 26.1394C11.3197 26.1576 11.0241 25.9489 10.9772 25.5862C10.9209 25.1599 10.9209 24.7132 10.9819 24.2869C11.0335 23.9241 11.3408 23.72 11.7186 23.745C12.0916 23.7699 12.3426 23.9876 12.3942 24.3663C12.4224 24.5681 12.42 24.7721 12.4294 24.9739Z" fill="#008080"/>
</g>
<defs>
<clipPath id="clip0_46_4762">
<rect width="48" height="48" fill="white"/>
</clipPath>
</defs>
</svg>
