<svg width="48" height="48" viewBox="0 0 48 48" fill="none" xmlns="http://www.w3.org/2000/svg">
<g clip-path="url(#clip0_45_4721)">
<path d="M48 29.438C47.875 29.4355 47.75 29.4392 47.625 29.4305C46.1775 29.3315 44.9025 29.6083 43.5737 30.3773C40.6075 32.0918 37.3975 32.2071 34.1925 30.9734C30.9663 29.7323 27.765 28.4248 24.5525 27.1473C24.415 27.0922 24.2762 27.0434 24.0287 26.9507C24.3825 27.6608 24.6937 28.2645 24.9875 28.8756C25.4787 29.8989 25.7225 30.9684 25.4425 32.0956C25.06 33.6348 23.8287 34.6643 22.2025 34.8434C20.8125 34.9962 19.32 34.137 18.6725 32.7669C17.8075 30.9359 16.9725 29.0898 16.1238 27.2513C16.0525 27.0972 15.9712 26.9469 15.875 26.7541C14.9725 27.1736 14.105 27.6383 13.1925 27.9802C12.525 28.2307 12.3625 28.6051 12.3675 29.2902C12.4 34.0995 12.385 38.91 12.385 43.7205C12.385 46.0174 11.4525 47.2723 9.255 47.9411C9.22875 47.9487 9.21 47.9812 9.1875 48.0025C7.1875 48.0025 5.1875 48.0025 3.1875 48.0025C3.09 47.9649 2.995 47.9186 2.895 47.8885C1.59875 47.5015 0.6975 46.6875 0.21375 45.4188C0.1375 45.2196 0.07125 45.0155 0.00125 44.8139C0 30.9384 0 17.0629 0 3.1874C0.08875 2.94317 0.17375 2.6952 0.26875 2.45348C0.84625 0.981895 2.24875 0.011275 3.82375 0.0037605C5.32375 -0.00250157 6.8225 0.00125567 8.3225 0.00250808C10.7438 0.0037605 12.3788 1.62188 12.3813 4.05031C12.3888 9.81391 12.3837 15.5788 12.3837 21.3424C12.3837 21.5077 12.3837 21.6718 12.3837 21.9047C12.6163 21.7907 12.7838 21.7169 12.9438 21.6304C14.8975 20.5884 16.85 19.5439 18.8037 18.5019C23.4625 16.0184 28.3025 15.5888 33.3325 17.1969C37.1287 18.4105 40.9325 19.604 44.735 20.7988C44.9538 20.8677 45.1912 20.8978 45.4212 20.9015C46.28 20.9128 47.14 20.9053 47.9987 20.904C47.9987 21.4351 47.9987 21.9661 47.9987 22.4984C47.125 22.4883 46.2513 22.4921 45.3787 22.4608C45.01 22.447 44.63 22.4032 44.28 22.2942C40.5788 21.1382 36.87 20.0061 33.19 18.7862C29.1662 17.4524 25.1513 17.3597 21.2738 19.0918C18.305 20.4181 15.485 22.0738 12.6038 23.593C12.5037 23.6456 12.3963 23.7996 12.395 23.9086C12.3788 24.7953 12.385 25.6807 12.385 26.6088C12.5125 26.5674 12.6012 26.5474 12.6825 26.5098C15.3225 25.2775 17.9638 24.0451 20.6 22.8039C20.7475 22.7338 20.885 22.6186 20.995 22.4959C21.6513 21.7632 22.4662 21.5127 23.4062 21.7406C23.84 21.8458 24.2438 22.0738 24.6725 22.2091C24.7963 22.2479 25.0075 22.2128 25.0987 22.1264C26.4612 20.8552 27.9963 20.5747 29.7225 21.2685C31.6437 22.0412 33.5775 22.7852 35.4888 23.5829C36.4238 23.9724 37.315 24.268 38.1188 23.504C38.5113 23.8697 38.8625 24.1979 39.2262 24.5373C39.1825 24.5924 39.1512 24.6462 39.1075 24.6863C39.0162 24.7702 38.9237 24.8567 38.82 24.9255C37.8525 25.5856 36.8112 25.7471 35.7075 25.3351C34.8462 25.0132 33.9975 24.6613 33.1437 24.3206C31.74 23.7608 30.3413 23.1909 28.9325 22.6449C28.0238 22.293 27.0025 22.4746 26.5812 23.0269C29.2512 24.2618 29.6325 25.017 28.6425 27.1423C28.7525 27.1912 28.8612 27.2438 28.9737 27.2876C30.8325 28.0077 32.6888 28.7329 34.5513 29.4442C38.07 30.7881 41.3375 30.3147 44.365 28.0804C44.5475 27.9451 44.815 27.87 45.045 27.8637C46.0287 27.8374 47.0125 27.8474 47.9963 27.8437C48 28.3747 48 28.907 48 29.438ZM1.56875 17.8006C1.56875 18.3629 1.56875 18.9252 1.56875 19.4876C1.56875 23.5329 1.56375 27.5794 1.57125 31.6247C1.57375 33.1101 2.5225 34.0419 4.00875 34.0444C5.50875 34.0469 7.0075 34.0406 8.5075 34.0469C9.135 34.0494 9.6675 33.8302 10.1175 33.4069C10.695 32.8621 10.8313 32.167 10.83 31.4018C10.8225 22.4984 10.825 13.5949 10.825 4.69154C10.825 4.42603 10.8313 4.16052 10.8212 3.89501C10.7675 2.48479 9.83875 1.58055 8.425 1.57303C6.925 1.56552 5.42625 1.56928 3.92625 1.57429C3.71 1.57554 3.48625 1.58806 3.27875 1.64317C2.19875 1.92997 1.5725 2.8004 1.57125 4.02401C1.56625 8.61536 1.56875 13.208 1.56875 17.8006ZM10.805 35.0864C10.0188 35.2705 9.28 35.5585 8.5275 35.5961C6.97 35.675 5.405 35.6662 3.84625 35.5974C3.215 35.5685 2.59375 35.2905 1.97 35.1164C1.8475 35.0814 1.7375 34.9999 1.58625 34.921C1.5775 35.0726 1.5675 35.164 1.5675 35.2567C1.56625 38.1911 1.56 41.1268 1.57125 44.0612C1.57625 45.4877 2.52875 46.422 3.96 46.4282C5.45875 46.4357 6.9575 46.432 8.45625 46.427C8.6725 46.4257 8.89625 46.4132 9.10375 46.3581C10.1688 46.0738 10.8138 45.2196 10.8188 44.0286C10.8313 41.1092 10.8237 38.1898 10.8212 35.2705C10.8225 35.1778 10.805 35.0864 10.805 35.0864ZM17.325 26.1191C17.5463 26.5988 17.7775 27.0421 17.955 27.5055C18.065 27.7911 18.2275 27.8662 18.5138 27.8587C20.4837 27.8098 21.8438 28.6978 22.5975 30.5251C22.8713 31.1889 23.1825 31.8376 23.535 32.6241C23.7 32.2459 23.8388 32.0029 23.9125 31.7424C24.125 30.9935 23.9237 30.2846 23.605 29.6146C23.0612 28.4749 22.4825 27.3515 21.9163 26.223C21.8687 26.1279 21.8037 26.0364 21.73 25.9613C21.3037 25.533 20.8725 25.1096 20.3962 24.6375C19.4963 25.057 18.4812 25.5304 17.4662 26.0064C17.425 26.0252 17.3925 26.064 17.325 26.1191ZM22.9538 23.2448C22.4175 23.2273 22.1488 23.4176 22.0662 23.8009C21.9862 24.1691 22.165 24.4421 22.5063 24.5861C23.87 25.161 25.2362 25.7321 26.6063 26.2919C26.9788 26.4435 27.2837 26.3044 27.48 25.9638C27.71 25.5655 27.5263 25.151 27.0125 24.9268C25.7838 24.392 24.55 23.8672 23.3162 23.345C23.1612 23.2799 22.99 23.2548 22.9538 23.2448ZM18.8425 29.433C19.3213 30.4424 19.7337 31.4018 20.2237 32.3185C20.5938 33.0111 21.4112 33.363 22.0812 33.204C21.6787 32.3198 21.3212 31.4206 20.8687 30.5727C20.47 29.8262 19.7812 29.4655 18.8425 29.433Z" fill="#008080"/>
<path d="M10.8051 35.0865C10.8051 35.0865 10.8226 35.1779 10.8226 35.2706C10.8239 38.1899 10.8326 41.1093 10.8201 44.0287C10.8151 45.2197 10.1701 46.0739 9.1051 46.3582C8.8976 46.4133 8.67386 46.4271 8.45761 46.4271C6.95886 46.4333 5.46011 46.4358 3.96136 46.4283C2.53011 46.4208 1.57761 45.4878 1.57261 44.0613C1.56136 41.1269 1.56886 38.1912 1.56886 35.2568C1.56886 35.1641 1.57886 35.0727 1.58761 34.9211C1.73886 35 1.84761 35.0815 1.97136 35.1165C2.59386 35.2919 3.21636 35.5699 3.84761 35.5974C5.40511 35.6676 6.97136 35.6751 8.52886 35.5962C9.28011 35.5586 10.0201 35.2706 10.8051 35.0865ZM6.19011 38.716C5.65886 38.716 5.12885 38.7072 4.5976 38.7185C3.76385 38.736 3.11886 39.3735 3.09886 40.2038C3.08511 40.7499 3.08761 41.2972 3.09761 41.8432C3.11261 42.5859 3.61386 43.2622 4.35011 43.3048C5.57635 43.3749 6.8126 43.3737 8.03886 43.3035C8.76011 43.2622 9.25761 42.606 9.27886 41.8846C9.29511 41.3235 9.29636 40.7599 9.28011 40.1988C9.25636 39.3597 8.62011 38.7347 7.78136 38.7185C7.25136 38.7072 6.72136 38.716 6.19011 38.716Z" fill="white"/>
<path d="M17.3252 26.1191C17.3939 26.064 17.4252 26.0264 17.4652 26.0063C18.4802 25.5304 19.4952 25.0583 20.3952 24.6375C20.8727 25.1096 21.3039 25.5329 21.7289 25.9613C21.8039 26.0364 21.8677 26.1278 21.9152 26.223C22.4827 27.3514 23.0602 28.4748 23.6039 29.6145C23.9227 30.2833 24.1239 30.9922 23.9114 31.7424C23.8377 32.0029 23.6989 32.2459 23.5339 32.6241C23.1814 31.8376 22.8702 31.1888 22.5964 30.525C21.8427 28.6978 20.4827 27.8098 18.5127 27.8587C18.2264 27.8662 18.0639 27.791 17.9539 27.5055C17.7764 27.0421 17.5464 26.5987 17.3252 26.1191Z" fill="white"/>
<path d="M22.9536 23.2448C22.9886 23.2548 23.1598 23.2798 23.3148 23.3449C24.5486 23.8672 25.7823 24.3932 27.0111 24.9267C27.5261 25.1509 27.7086 25.5642 27.4786 25.9637C27.2823 26.3044 26.9773 26.4447 26.6048 26.2919C25.2348 25.732 23.8698 25.1597 22.5048 24.5861C22.1636 24.4421 21.9848 24.1703 22.0648 23.8008C22.1486 23.4188 22.4173 23.2272 22.9536 23.2448Z" fill="white"/>
<path d="M18.8428 29.4331C19.7803 29.4657 20.469 29.8251 20.869 30.5728C21.3215 31.4219 21.6803 32.3212 22.0815 33.2041C21.4115 33.3619 20.594 33.01 20.224 32.3187C19.734 31.4019 19.3215 30.4426 18.8428 29.4331Z" fill="white"/>
<path d="M6.18745 13.1591C6.1887 13.5824 5.8487 13.9394 5.43245 13.9481C5.0062 13.9582 4.62745 13.5712 4.63995 13.1403C4.65245 12.722 5.00995 12.3776 5.4287 12.3826C5.85495 12.3876 6.1862 12.7258 6.18745 13.1591Z" fill="#008080"/>
<path d="M7.75549 3.88244C7.74799 4.28697 7.37299 4.65643 6.96924 4.65768C6.54174 4.65894 6.17549 4.27194 6.19299 3.83735C6.21049 3.41153 6.56048 3.08716 6.99048 3.09843C7.40673 3.1097 7.76424 3.47541 7.75549 3.88244Z" fill="#008080"/>
<path d="M6.18777 6.98095C6.18152 7.40302 5.83027 7.7562 5.41652 7.75494C5.00902 7.75369 4.64402 7.39049 4.63777 6.97845C4.63152 6.54386 5.00402 6.18066 5.44402 6.19319C5.87277 6.20571 6.19402 6.54511 6.18777 6.98095Z" fill="#008080"/>
<path d="M4.65625 10.0506C4.66375 10.4539 4.30375 10.8346 3.89625 10.8509C3.49125 10.8672 3.11625 10.514 3.0975 10.1007C3.0775 9.65358 3.42375 9.28787 3.8675 9.28662C4.2825 9.28662 4.6475 9.64105 4.65625 10.0506Z" fill="#008080"/>
<path d="M7.75353 10.0443C7.76603 10.4464 7.40853 10.8296 6.99978 10.8509C6.59603 10.8722 6.21478 10.5202 6.19353 10.1082C6.16978 9.6636 6.51728 9.29288 6.95853 9.28787C7.37353 9.28411 7.74103 9.63354 7.75353 10.0443Z" fill="#008080"/>
<path d="M8.52353 12.3826C8.95103 12.3864 9.28103 12.7233 9.28228 13.1578C9.28353 13.5837 8.94728 13.9381 8.52978 13.9481C8.10353 13.9581 7.72728 13.5761 7.73853 13.1416C7.74978 12.7182 8.10103 12.3788 8.52353 12.3826Z" fill="#008080"/>
<path d="M4.65607 3.86114C4.66232 4.26442 4.29857 4.64265 3.89232 4.65643C3.48607 4.6702 3.11357 4.31702 3.09732 3.90247C3.07982 3.45286 3.42232 3.09592 3.87107 3.09717C4.28982 3.09968 4.64982 3.4491 4.65607 3.86114Z" fill="#008080"/>
<path d="M9.28208 6.9836C9.27583 7.40566 8.92458 7.75759 8.51083 7.75509C8.10083 7.75258 7.74208 7.39189 7.73833 6.97609C7.73333 6.53649 8.10083 6.1783 8.54333 6.19333C8.97208 6.2071 9.28958 6.54651 9.28208 6.9836Z" fill="#008080"/>
<path d="M6.18984 38.716C6.72109 38.716 7.25109 38.7072 7.78234 38.7172C8.62109 38.7335 9.25734 39.3584 9.28109 40.1976C9.29734 40.7586 9.29609 41.3222 9.27984 41.8833C9.25859 42.6059 8.75984 43.2622 8.03984 43.3023C6.81359 43.3724 5.57734 43.3737 4.35109 43.3035C3.61484 43.261 3.11359 42.5847 3.09859 41.842C3.08734 41.2959 3.08609 40.7486 3.09984 40.2026C3.11984 39.3722 3.76484 38.7347 4.59859 38.7172C5.12859 38.7072 5.65859 38.716 6.18984 38.716ZM4.70484 40.2852C4.70484 40.7837 4.70484 41.2696 4.70484 41.7819C5.70234 41.7819 6.68859 41.7819 7.68109 41.7819C7.68109 41.2684 7.68109 40.7824 7.68109 40.2852C6.67234 40.2852 5.70859 40.2852 4.70484 40.2852Z" fill="#008080"/>
<path d="M4.70508 40.2852C5.70883 40.2852 6.67258 40.2852 7.68133 40.2852C7.68133 40.7824 7.68133 41.267 7.68133 41.7818C6.68883 41.7818 5.70258 41.7818 4.70508 41.7818C4.70508 41.2696 4.70508 40.7836 4.70508 40.2852Z" fill="white"/>
</g>
<defs>
<clipPath id="clip0_45_4721">
<rect width="48" height="48" fill="white"/>
</clipPath>
</defs>
</svg>
