<svg width="48" height="60" viewBox="0 0 48 60" fill="none" xmlns="http://www.w3.org/2000/svg">
<g clip-path="url(#clip0_45_4747)">
<path d="M5.59937 22.1618C5.67622 20.4911 5.62081 18.9 5.84423 17.3487C6.98096 9.50332 10.7701 3.58179 18.4287 0.963665C27.0739 -1.99258 36.6038 1.96355 40.5913 11.3566C41.8943 14.4268 42.4412 17.6416 42.3447 20.9757C42.334 21.3355 42.3429 21.6953 42.3429 22.1618C42.9827 22.1618 43.619 22.1618 44.2553 22.1618C45.258 22.1618 46.2642 22.1275 47.2634 22.1871C47.51 22.2016 47.8871 22.4783 47.9443 22.7025C48.0587 23.1545 47.6762 23.3046 47.2812 23.3299C47.1043 23.3407 46.9238 23.3335 46.7468 23.3335C31.5869 23.3335 16.4269 23.3335 1.26514 23.3335C1.04173 23.3335 0.777203 23.4022 0.607409 23.3046C0.376846 23.1708 0.217775 22.9086 0.0283203 22.7025C0.24101 22.5235 0.450125 22.1962 0.668177 22.189C2.07122 22.1419 3.47604 22.1636 4.88087 22.1636C5.12394 22.1618 5.36523 22.1618 5.59937 22.1618ZM41.1239 22.1112C41.6065 18.3865 40.661 13.68 38.7218 10.0801C34.0802 1.46451 23.3831 -1.44292 15.1883 3.74091C10.8308 6.49645 8.37327 10.6153 7.28123 15.6201C6.81474 17.7573 6.63243 19.9234 6.88623 22.1618C8.35361 22.1618 9.77631 22.1239 11.1972 22.1745C12.2857 22.2143 13.2937 22.0172 14.3054 21.6104C16.8183 20.5978 19.1061 19.2508 21.0149 17.2908C22.4984 15.7648 23.6995 14.0471 24.4269 12.0202C24.5645 11.6387 24.7754 11.3458 25.2062 11.4904C25.678 11.6495 25.6691 12.0274 25.5011 12.4324C25.3634 12.7633 25.2687 13.1177 25.0953 13.4287C24.8666 13.8391 24.9077 14.1284 25.2348 14.4883C27.3098 16.7773 29.8996 18.2148 32.7701 19.1767C34.6467 19.8059 36.6324 20.2109 38.2214 21.4621C39.1311 22.1745 40.0498 22.245 41.1239 22.1112ZM16.1141 22.104C23.1865 22.104 30.0802 22.104 36.9738 22.104C36.9881 22.0497 37.0006 21.9937 37.0149 21.9394C36.0444 21.5634 35.0953 21.1095 34.0998 20.8256C30.3733 19.7643 26.9845 18.128 24.3054 15.2097C24.2839 15.1862 24.2303 15.1934 24.1749 15.1844C22.2356 18.278 19.5314 20.4803 16.1141 22.104Z" fill="#008080"/>
<path d="M27.8785 48.1098C25.5103 49.1459 23.1099 49.1712 20.6434 48.0755C20.5076 48.9325 20.3986 49.7245 20.2556 50.5092C19.7265 53.4275 18.8186 56.1812 16.7936 58.4269C16.3467 58.9241 15.8409 59.3833 15.2994 59.7666C15.1046 59.9041 14.6256 59.8806 14.4432 59.7269C14.1269 59.4611 14.3056 59.1049 14.6077 58.8771C17.5853 56.6332 18.6041 53.366 19.1939 49.88C19.3172 49.1495 19.6354 48.3105 19.403 47.6994C19.1796 47.1118 18.3592 46.7574 17.8034 46.2981C14.8883 43.8915 12.8776 40.8123 11.3709 37.3733C11.1689 36.9105 10.9508 36.7495 10.4468 36.7531C7.2815 36.7785 4.11617 36.7712 0.950843 36.7568C0.682746 36.755 0.352094 36.6971 0.159064 36.5344C-0.169801 36.2559 0.0375271 35.7117 0.487929 35.6086C0.679171 35.5652 0.886499 35.5851 1.08668 35.5851C16.3557 35.5851 31.6247 35.5851 46.8937 35.5851C47.0045 35.5851 47.1171 35.5869 47.2279 35.5851C47.6568 35.5779 48.0125 35.7135 47.9928 36.2125C47.975 36.6682 47.6336 36.7712 47.2315 36.7712C44.2449 36.7658 41.2583 36.7839 38.2699 36.755C37.7033 36.7495 37.4298 36.8978 37.185 37.4493C35.521 41.1758 33.3351 44.5207 29.9535 46.8912C29.2779 47.3649 29.0545 47.7663 29.1832 48.6143C29.5853 51.2541 30.034 53.8795 31.5138 56.1486C32.1287 57.0925 32.9902 57.8772 33.7641 58.7089C34.05 59.0163 34.5398 59.2477 34.1537 59.7431C33.748 60.2639 33.3584 59.8788 33.0134 59.6003C30.8311 57.8464 29.5746 55.4905 28.8615 52.829C28.4558 51.3156 28.2163 49.757 27.8785 48.1098ZM12.3521 36.7839C13.9875 40.3929 15.9946 43.5751 19.1385 45.8732C22.5398 48.3575 25.9821 48.381 29.403 45.9112C32.5576 43.6312 34.5952 40.4616 36.1537 36.9358C36.168 36.9032 36.1412 36.8508 36.1251 36.764C33.0831 36.764 30.034 36.7568 26.9848 36.7839C26.8311 36.7857 26.6148 37.037 26.5398 37.2196C26.1394 38.1978 25.4191 38.6824 24.2878 38.6806C23.1671 38.6788 22.4218 38.1797 22.0608 37.1943C22.0107 37.0551 21.9642 36.9159 21.9214 36.7857C18.7328 36.7839 15.5961 36.7839 12.3521 36.7839ZM25.4138 36.8219C24.6399 36.8219 23.9339 36.8219 23.1814 36.8219C23.4191 37.4583 23.891 37.5324 24.3843 37.5144C24.8293 37.4963 25.2618 37.4059 25.4138 36.8219Z" fill="#008080"/>
<path d="M43.9356 26.4038C44.3913 25.921 44.8239 25.469 45.2492 25.0115C45.5191 24.7204 45.8015 24.4094 46.2108 24.7331C46.6541 25.0838 46.4289 25.4382 46.1429 25.7709C46.0589 25.8667 45.9963 25.9807 45.8766 26.1542C46.4467 26.3224 46.9454 26.4869 47.4548 26.6153C47.8373 26.7111 48.0714 26.91 47.9856 27.3205C47.898 27.7399 47.5835 27.834 47.2135 27.7327C46.5701 27.5573 45.9391 27.3403 45.2904 27.1885C45.0669 27.136 44.8114 27.2228 44.5701 27.2463C44.5593 27.3205 44.5486 27.3964 44.5379 27.4705C44.9883 27.7454 45.4333 28.0292 45.8909 28.2914C46.2358 28.4903 46.5004 28.7471 46.2948 29.1557C46.0643 29.6113 45.68 29.5119 45.3207 29.2985C44.8417 29.011 44.3842 28.6874 43.8909 28.4324C43.6943 28.3294 43.4244 28.3674 43.1885 28.342C43.1617 28.4162 43.1366 28.4921 43.1098 28.5662C43.5066 28.9785 43.9016 29.3944 44.302 29.803C44.579 30.0869 44.7577 30.3942 44.4271 30.7396C44.0982 31.0813 43.7819 30.9294 43.5013 30.6419C43.1277 30.255 42.7595 29.8626 42.386 29.4739C42.0821 29.1557 42.0803 29.1575 41.6085 29.5137C41.8927 30.0073 42.1751 30.5136 42.47 31.0108C42.6845 31.3706 42.8203 31.7521 42.3842 32.0016C41.957 32.2457 41.6818 31.9492 41.4762 31.5822C41.2689 31.2097 41.0777 30.8246 40.8328 30.4774C40.7005 30.2912 40.4736 30.1736 40.2895 30.0254C40.2519 30.2532 40.1501 30.4937 40.1894 30.707C40.2716 31.1464 40.4342 31.5695 40.554 32.0034C40.6648 32.3994 40.6952 32.8062 40.2108 32.9491C39.7658 33.0793 39.571 32.7484 39.4566 32.3759C39.3047 31.8823 39.1742 31.3815 39.0026 30.8951C38.9561 30.7613 38.7935 30.6691 38.6845 30.557C38.5951 30.707 38.4324 30.8571 38.4324 31.0072C38.4307 31.593 38.4807 32.177 38.5129 32.7628C38.5343 33.1606 38.4682 33.5168 37.9874 33.5331C37.5227 33.5494 37.4065 33.2311 37.3851 32.8171C37.3529 32.1879 37.2886 31.5623 37.2171 30.689C36.9704 30.9638 36.7542 31.0958 36.7166 31.2694C36.5826 31.8606 36.5218 32.4681 36.4146 33.0648C36.3449 33.4553 36.2358 33.8622 35.7211 33.7935C35.1956 33.7229 35.2117 33.3017 35.2653 32.9075C35.3493 32.2891 35.453 31.6726 35.5495 31.056C35.4887 31.0126 35.428 30.9674 35.3672 30.924C35.2242 31.0759 35.0276 31.2025 34.9454 31.3833C34.6737 31.9745 34.4396 32.5838 34.1965 33.1859C34.0518 33.5457 33.8534 33.864 33.4101 33.6994C32.9454 33.5259 32.9543 33.1624 33.1277 32.7538C33.3708 32.1806 33.5924 31.5984 33.823 31.0198C33.7711 30.9674 33.7211 30.915 33.6693 30.8607C33.5138 30.9728 33.319 31.0542 33.2081 31.2006C32.7774 31.7756 32.3717 32.3687 31.9624 32.9581C31.7229 33.3017 31.3744 33.4879 31.0759 33.1679C30.924 33.0051 30.924 32.5314 31.0473 32.3036C31.3458 31.7449 31.7551 31.2477 32.1197 30.7251C32.0696 30.6691 32.0196 30.613 31.9695 30.557C31.789 30.6636 31.5888 30.7468 31.4298 30.8806C30.8632 31.3543 30.3145 31.8497 29.7515 32.3271C29.4459 32.5875 29.1063 32.6923 28.8239 32.3108C28.5451 31.9311 28.7577 31.6436 29.0634 31.3923C29.512 31.0234 29.9535 30.6456 30.3985 30.2713C30.3806 30.2152 30.361 30.161 30.3431 30.1049C30.1232 30.1664 29.8909 30.199 29.6871 30.293C29.0008 30.613 28.3288 30.962 27.6442 31.2856C27.2975 31.4484 26.915 31.5098 26.7238 31.0813C26.52 30.6275 26.8078 30.3743 27.1992 30.2044C27.6478 30.0109 28.0893 29.8012 28.52 29.4631C28.3145 29.4631 28.1054 29.4341 27.9052 29.4685C27.0955 29.6023 26.2913 29.7994 25.4762 29.8717C25.2367 29.8934 24.9686 29.5842 24.7148 29.4269C24.9186 29.2117 25.0848 28.908 25.3333 28.8013C25.6693 28.6585 26.0661 28.6675 26.6344 28.5825C26.2358 28.333 25.9159 28.2173 25.7247 27.9913C25.5424 27.7743 25.4941 27.4434 25.3869 27.1613C25.68 27.1071 26.0249 26.9281 26.2573 27.0257C26.8918 27.2879 27.478 27.6676 28.0714 27.9931C28.6344 27.5483 29.6478 27.4289 30.0946 27.8448C30.3002 28.0365 30.2948 28.4578 30.4271 28.917C33.9231 30.4593 39.394 29.9277 41.991 27.8032C41.9695 27.3548 41.8319 26.9606 41.966 26.722C42.2412 26.2248 43.3887 26.062 43.9356 26.4038Z" fill="#008080"/>
<path d="M4.06072 26.402C4.65054 26.0747 5.64964 26.185 6.01783 26.7003C6.18583 26.9336 6.0786 27.3693 6.10719 27.9063C9.68181 30.1827 13.6639 30.3057 17.6103 28.9641C17.7479 28.494 17.7444 28.0419 17.9642 27.8485C18.4557 27.4145 19.3976 27.5357 19.9428 28.013C20.5093 27.702 21.0956 27.3838 21.6782 27.0601C22.016 26.8739 22.3771 26.7473 22.6166 27.1505C22.865 27.5718 22.6362 27.8684 22.2448 28.0709C21.9982 28.1992 21.7622 28.3475 21.3565 28.5826C21.9374 28.673 22.3217 28.7453 22.7077 28.7869C23.1009 28.8303 23.4119 29.04 23.2886 29.4197C23.2171 29.6439 22.806 29.9224 22.5755 29.8989C21.7158 29.8121 20.8704 29.6059 20.0178 29.4541C19.8552 29.4251 19.6854 29.4342 19.4727 29.5806C19.9338 29.8012 20.3896 30.0327 20.8561 30.237C21.2314 30.4015 21.4816 30.6438 21.3154 31.0669C21.1438 31.5063 20.7685 31.4828 20.4164 31.3182C19.7301 31 19.058 30.6492 18.3735 30.3238C18.1662 30.2261 17.9428 30.1665 17.7265 30.0905C17.6908 30.1484 17.6532 30.2062 17.6175 30.2623C18.0446 30.6275 18.4647 31.0018 18.9008 31.3562C19.2421 31.6346 19.5317 31.9384 19.1671 32.3651C18.8257 32.7647 18.4825 32.517 18.1805 32.2584C17.6353 31.7919 17.1045 31.311 16.5558 30.8517C16.411 30.7306 16.2216 30.6637 16.0536 30.5733C16.0035 30.6293 15.9517 30.6872 15.9017 30.7432C16.2395 31.2224 16.5719 31.7052 16.9168 32.1789C17.1724 32.5296 17.3923 32.8985 16.9329 33.224C16.5058 33.5259 16.2323 33.2059 16.0017 32.8804C15.6121 32.3326 15.2403 31.7702 14.8346 31.2332C14.7185 31.0796 14.5147 30.9964 14.3521 30.8807C14.3038 30.9295 14.2573 30.9801 14.2091 31.0289C14.4468 31.6274 14.6738 32.2313 14.924 32.8244C15.092 33.224 15.042 33.6073 14.6237 33.6886C14.4039 33.732 14.0035 33.4843 13.8802 33.2601C13.5621 32.6725 13.3655 32.018 13.0902 31.4032C13.0098 31.2206 12.8311 31.0832 12.697 30.9259C12.6327 30.9602 12.5665 30.9946 12.5022 31.0289C12.5594 31.4864 12.613 31.9438 12.672 32.4013C12.6899 32.5351 12.7417 32.6653 12.7524 32.7972C12.7828 33.2185 12.9115 33.7248 12.2877 33.7989C11.7265 33.8658 11.6711 33.3921 11.5996 32.9889C11.5013 32.4356 11.4441 31.8733 11.319 31.3273C11.2761 31.141 11.0831 30.991 10.958 30.8246C10.9025 30.859 10.8489 30.8915 10.7935 30.9259C10.7417 31.575 10.6773 32.2223 10.6398 32.8714C10.6148 33.2963 10.4575 33.5838 9.99817 33.5404C9.56028 33.4988 9.49415 33.1625 9.51381 32.7954C9.54419 32.1879 9.59424 31.5804 9.59781 30.9711C9.59781 30.8373 9.44231 30.6999 9.35652 30.5661C9.24392 30.6709 9.07592 30.7559 9.02945 30.8861C8.85071 31.3942 8.7113 31.9149 8.55402 32.432C8.43427 32.8244 8.17332 33.1372 7.78369 32.9256C7.58351 32.8171 7.43874 32.3705 7.4727 32.1047C7.54062 31.5768 7.77118 31.0705 7.89093 30.5462C7.92489 30.3997 7.80514 30.2171 7.75509 30.0507C7.60317 30.1303 7.39406 30.1719 7.31005 30.2985C7.02587 30.7288 6.78458 31.1862 6.53079 31.6364C6.32167 32.0035 6.05 32.2837 5.62105 32.0071C5.2332 31.7558 5.33865 31.4032 5.5424 31.0615C5.8391 30.5624 6.12507 30.0562 6.41282 29.5535C6.13579 29.1232 5.9088 29.1756 5.62105 29.5083C5.25643 29.9332 4.8811 30.3635 4.44321 30.7017C4.25912 30.8445 3.83016 30.877 3.63892 30.7559C3.29397 30.5353 3.3744 30.1592 3.66037 29.8934C4.10004 29.4848 4.56475 29.1015 5.01872 28.7073C4.95974 28.5898 4.90255 28.4705 4.84357 28.3529C4.59692 28.3819 4.3181 28.3475 4.11077 28.4542C3.61747 28.7091 3.15813 29.0346 2.68092 29.3239C2.34133 29.53 1.97851 29.6023 1.74973 29.2009C1.52453 28.805 1.75331 28.5283 2.10541 28.324C2.56296 28.0582 3.00979 27.7762 3.46198 27.5013C3.4584 27.4272 3.45304 27.3531 3.44946 27.2789C3.21711 27.2482 2.96868 27.1487 2.75599 27.2012C2.10898 27.3567 1.48521 27.6243 0.832842 27.7346C0.600492 27.7743 0.180474 27.5592 0.0803843 27.3476C-0.0929848 26.9806 0.191198 26.7365 0.570107 26.6389C1.08485 26.5051 1.59602 26.3532 2.19835 26.1832C2.01783 25.9572 1.8105 25.8053 1.76761 25.6155C1.70862 25.3515 1.77118 25.0586 1.7819 24.7783C2.05894 24.8036 2.42712 24.7223 2.59513 24.8723C3.12596 25.3352 3.5853 25.8921 4.06072 26.402Z" fill="#008080"/>
<path d="M15.3265 29.2008C15.0477 29.1846 14.8171 29.2316 14.658 29.1448C14.4882 29.0526 14.2773 28.8356 14.2773 28.6729C14.2773 28.4776 14.4507 28.1449 14.6008 28.1124C15.0477 28.0165 15.5231 27.9966 15.9807 28.0364C16.1254 28.0491 16.3542 28.3402 16.3542 28.5029C16.3542 28.7 16.1951 28.9766 16.0253 29.0743C15.8091 29.1954 15.5124 29.1719 15.3265 29.2008Z" fill="#008080"/>
<path d="M32.7458 29.179C32.6349 29.179 32.5241 29.1826 32.4115 29.179C31.9969 29.1645 31.6269 29.0524 31.6537 28.5425C31.677 28.0797 32.0183 27.9748 32.4169 27.9929C32.6832 28.0055 32.987 27.9422 33.2069 28.0507C33.4392 28.1646 33.5929 28.4431 33.7806 28.651C33.5697 28.8318 33.3713 29.0325 33.139 29.1808C33.0442 29.2423 32.878 29.1916 32.7458 29.1916C32.7458 29.1862 32.7458 29.1826 32.7458 29.179Z" fill="#008080"/>
<path d="M12.4361 29.1646C11.9213 29.1122 11.5657 29.1465 11.2725 29.0236C11.0616 28.935 10.7971 28.6258 10.8132 28.4378C10.8293 28.2407 11.1313 27.9659 11.3494 27.9152C11.655 27.8447 12.0018 27.9514 12.3306 27.9839C12.722 28.0219 12.9937 28.2443 12.8883 28.6349C12.8275 28.8735 12.5415 29.0507 12.4361 29.1646Z" fill="#008080"/>
<path d="M36.1398 29.0979C35.92 29.0979 35.6608 29.172 35.4928 29.078C35.3159 28.9804 35.1193 28.7182 35.1282 28.5356C35.1354 28.3512 35.3499 28.0854 35.5322 28.0185C35.8378 27.9064 36.206 27.8413 36.5152 27.91C36.7815 27.9697 37.0013 28.2445 37.2426 28.4253C37.0299 28.635 36.8369 28.8719 36.5992 29.0455C36.4919 29.1232 36.2971 29.0762 36.1398 29.0853C36.1398 29.0871 36.1398 29.0925 36.1398 29.0979Z" fill="#008080"/>
<path d="M7.89845 27.2246C8.41141 27.3602 8.82249 27.409 9.16923 27.5862C9.34438 27.6766 9.52669 28.0364 9.48022 28.2118C9.43017 28.3963 9.11203 28.6223 8.90828 28.6223C8.54367 28.6241 8.1451 28.5337 7.82338 28.3619C7.62857 28.2588 7.44983 27.928 7.4552 27.7056C7.46056 27.532 7.76083 27.3638 7.89845 27.2246Z" fill="#008080"/>
<path d="M38.9796 28.7108C38.8312 28.5444 38.5471 28.3672 38.5149 28.1502C38.4881 27.9694 38.7115 27.6512 38.9027 27.559C39.2334 27.4017 39.6266 27.3095 39.9912 27.3131C40.1914 27.3149 40.5149 27.5355 40.5578 27.7109C40.6025 27.8935 40.4273 28.2515 40.2522 28.3419C39.9072 28.5245 39.4961 28.5715 38.9796 28.7108Z" fill="#008080"/>
<path d="M16.1143 22.1039C19.5298 20.4803 22.2358 18.278 24.175 15.1843C24.2304 15.1934 24.2841 15.1861 24.3055 15.2096C26.9847 18.1279 30.3734 19.7642 34.1 20.8256C35.0955 21.1095 36.0446 21.5633 37.0151 21.9394C37.0008 21.9936 36.9883 22.0497 36.974 22.1039C30.0803 22.1039 23.1866 22.1039 16.1143 22.1039Z" fill="white"/>
<path d="M25.4142 36.822C25.2622 37.406 24.8297 37.4964 24.3865 37.5145C23.8932 37.5344 23.4195 37.4585 23.1836 36.822C23.9343 36.822 24.6403 36.822 25.4142 36.822Z" fill="white"/>
<path d="M24.7077 45.6057C22.5307 45.5768 20.8936 44.9349 19.6692 43.427C19.4601 43.1684 19.3064 42.7272 19.3636 42.4144C19.444 41.9696 19.8891 42.042 20.2859 42.0076C20.7774 41.966 21.2582 41.7201 21.73 41.5285C22.5701 41.1849 23.4137 40.9462 24.3252 41.2175C24.4253 41.2482 24.5504 41.2446 24.6523 41.2138C25.4887 40.9679 26.2698 41.1795 27.0651 41.4453C27.7264 41.6659 28.4092 41.8232 29.0919 41.9678C29.6478 42.0854 29.8909 42.6368 29.5406 43.1539C28.7023 44.3871 27.4923 45.0705 26.0875 45.4123C25.5495 45.5424 24.9883 45.5678 24.7077 45.6057ZM21.478 43.2009C23.0115 44.548 26.016 44.5317 27.4869 43.1774C26.57 42.8339 25.7336 42.2318 24.6987 42.7073C24.6058 42.7507 24.4628 42.7616 24.3717 42.72C23.3189 42.2517 22.4342 42.7797 21.478 43.2009Z" fill="#008080"/>
</g>
<defs>
<clipPath id="clip0_45_4747">
<rect width="48" height="60" fill="white"/>
</clipPath>
</defs>
</svg>
