<svg width="48" height="48" viewBox="0 0 48 48" fill="none" xmlns="http://www.w3.org/2000/svg">
<path d="M29.2483 -4.65348e-05C30.022 0.425002 30.1617 0.828916 29.8095 1.64849C28.0566 5.72285 26.9131 9.96982 26.271 14.3518C25.8377 17.3107 25.7168 20.2931 25.8917 23.2755C26.0948 26.7158 26.7664 30.0728 27.9885 33.3052C28.0684 33.5166 28.1987 33.7232 28.3501 33.8912C29.9175 35.6407 30.427 37.6579 29.6827 39.8829C28.9219 42.1596 27.2689 43.5217 24.9032 43.9326C21.4117 44.5397 18.0387 41.7205 18.0035 38.1839C17.9647 34.2904 18.2512 30.418 18.8218 26.5655C19.7375 20.387 21.3483 14.4023 23.7996 8.65123C24.9572 5.93537 26.285 3.30759 27.9052 0.835961C28.1106 0.521284 28.4218 0.275883 28.6836 -0.0012207C28.8726 -4.65348e-05 29.0604 -4.65348e-05 29.2483 -4.65348e-05ZM24.3702 13.045C24.3526 13.0403 24.335 13.0356 24.3174 13.032C24.2939 13.0849 24.2669 13.1377 24.2469 13.1917C22.9954 16.6238 22.0151 20.1358 21.3847 23.7287C20.9162 26.3976 20.5511 29.0911 20.2987 31.7894C20.0932 33.9757 20.0451 36.1855 20.0768 38.3835C20.0991 39.9358 21.0266 41.0395 22.4331 41.6501C23.8067 42.2454 25.1685 42.0998 26.3637 41.1827C28.3525 39.6575 28.5216 37.0755 26.8251 35.2285C26.5492 34.9279 26.3109 34.5581 26.1653 34.1788C24.8868 30.8371 24.1413 27.3769 23.89 23.8074C23.6928 20.9964 23.7304 18.1913 24.0732 15.3933C24.1706 14.609 24.2716 13.827 24.3702 13.045Z" fill="#008080"/>
<path d="M47.9998 45.5635C47.738 46.2304 47.468 46.8821 46.8692 47.3447C45.8302 48.1466 44.412 48.2206 43.3319 47.4973C42.2565 46.7776 41.7505 45.392 42.118 44.1697C42.4972 42.9052 43.6278 42.0304 44.9168 42.0046C46.2611 41.9776 47.4093 42.7854 47.8378 44.0582C47.8813 44.1885 47.9458 44.3118 47.9998 44.4374C47.9998 44.8132 47.9998 45.1877 47.9998 45.5635ZM45.9664 44.9975C45.9652 44.4398 45.5449 44.0265 44.9861 44.0335C44.4308 44.0394 44.0211 44.4656 44.0328 45.0257C44.0434 45.5611 44.4519 45.9627 44.9896 45.9674C45.5473 45.9721 45.9676 45.5553 45.9664 44.9975Z" fill="#008080"/>
<path d="M13.9461 38.0101C13.7324 38.0101 13.5469 38.0101 13.3614 38.0101C9.40968 38.0101 5.45674 38.0101 1.50497 38.0089C1.2866 38.0089 1.06706 38.0019 0.852213 37.9702C0.352078 37.8962 0.00691516 37.4982 0.00104504 37.0121C-0.00482508 36.513 0.367341 36.0833 0.876867 36.014C1.0154 35.9952 1.15746 36.0023 1.29834 36.0023C5.7972 36.0023 10.2961 36.0011 14.7949 36.0023C15.8199 36.0023 16.1415 36.4379 16.0594 37.4723C15.8621 39.9428 16.698 42.0633 18.4849 43.753C20.7343 45.8817 23.4322 46.5169 26.3685 45.607C29.3505 44.6817 31.1784 42.5694 31.8265 39.5107C31.9791 38.7944 31.9369 38.023 31.8958 37.2821C31.8535 36.5154 32.2398 36.0046 33.0217 36.0046C36.9734 35.9999 40.9264 35.9999 44.8781 36.0046C45.5344 36.0058 45.9665 36.3827 46.0029 36.9557C46.0369 37.4982 45.6025 37.942 44.9697 38.0007C44.8147 38.0148 44.6574 38.0113 44.5013 38.0113C41.2058 38.0113 37.9091 38.0113 34.6136 38.0113C34.4293 38.0113 34.245 38.0113 34.0208 38.0113C33.9139 41.1862 32.7035 43.8034 30.258 45.7878C28.3314 47.3518 26.0984 48.061 23.613 47.9964C19.0637 47.8766 14.1222 44.151 13.9461 38.0101Z" fill="#008080"/>
<path d="M13.9932 45.0095C13.985 46.6721 12.6384 48.0071 10.9759 47.9977C9.34991 47.9883 8.00095 46.6427 7.98452 45.0142C7.96808 43.3644 9.36752 41.986 11.0405 42.0036C12.6736 42.0212 14.0002 43.3715 13.9932 45.0095ZM11.0076 45.9711C11.5371 45.9664 11.995 45.5085 11.9868 44.9907C11.9785 44.4658 11.523 44.0279 10.9888 44.0325C10.4406 44.0372 10.0168 44.4658 10.0215 45.0106C10.025 45.5496 10.4617 45.9746 11.0076 45.9711Z" fill="#008080"/>
<path d="M3.06282 40.0075C4.76398 40.065 6.04367 41.4282 5.99084 43.1261C5.94153 44.7159 4.52448 46.0627 2.95246 46.0122C1.24308 45.9582 -0.0600851 44.5621 0.00213821 42.8525C0.0596654 41.2556 1.46028 39.9535 3.06282 40.0075ZM2.0285 43.0192C2.0379 43.5676 2.47111 43.9867 3.01586 43.9762C3.55826 43.9656 3.97504 43.5288 3.96565 42.9793C3.95743 42.4521 3.49134 41.9953 2.97594 42.0106C2.44881 42.0271 2.01911 42.4838 2.0285 43.0192Z" fill="#008080"/>
<path d="M36.9954 43.9772C36.4659 43.976 36.0045 43.5193 36.0068 42.9968C36.0092 42.4907 36.4929 42.0081 36.9989 42.0093C37.5237 42.0105 37.9757 42.4707 37.9757 43.0015C37.9745 43.5404 37.5342 43.9784 36.9954 43.9772Z" fill="white"/>
</svg>
