<svg width="16" height="16" viewBox="0 0 16 16" fill="none" xmlns="http://www.w3.org/2000/svg">
<path d="M8.52667 13.9998L2 7.47314V8.80648C2 9.15981 2.14 9.49981 2.39333 9.74648L7.58667 14.9398C8.10667 15.4598 8.95333 15.4598 9.47333 14.9398L13.6133 10.7998C14.1333 10.2798 14.1333 9.43314 13.6133 8.91314L8.52667 13.9998Z" fill="#D32F2F"/>
<path d="M7.58667 11.6067C7.84667 11.8667 8.18667 12 8.52667 12C8.86667 12 9.20667 11.8667 9.46667 11.6067L13.6067 7.46667C14.1267 6.94667 14.1267 6.1 13.6067 5.58L8.41333 0.386667C8.16667 0.14 7.82667 0 7.47333 0H3.33333C2.6 0 2 0.6 2 1.33333V5.47333C2 5.82667 2.14 6.16667 2.39333 6.41333L7.58667 11.6067ZM3.33333 1.33333H7.47333L12.6667 6.52667L8.52667 10.6667L3.33333 5.47333V1.33333Z" fill="#D32F2F"/>
<path d="M4.83333 3.66667C5.29357 3.66667 5.66667 3.29357 5.66667 2.83333C5.66667 2.3731 5.29357 2 4.83333 2C4.3731 2 4 2.3731 4 2.83333C4 3.29357 4.3731 3.66667 4.83333 3.66667Z" fill="#D32F2F"/>
</svg>
