<svg width="17" height="21" viewBox="0 0 17 21" fill="none" xmlns="http://www.w3.org/2000/svg">
<g clip-path="url(#clip0_77_1959)">
<path d="M14.4153 1.56044C13.4904 0.506183 11.8184 0.0541992 9.67942 0.0541992H3.47153C3.2599 0.0542071 3.05521 0.12971 2.89427 0.267132C2.73332 0.404555 2.62668 0.594884 2.59351 0.803899L0.00866086 17.1977C-0.0427176 17.5209 0.207603 17.8137 0.535256 17.8137H4.36779L5.33031 11.7086L5.30044 11.8998C5.36901 11.4682 5.73808 11.1499 6.17513 11.1499H7.99635C11.5741 11.1499 14.3756 9.69675 15.1939 5.49294C15.2182 5.36861 15.2392 5.2476 15.2574 5.12938C15.1541 5.07468 15.1541 5.07468 15.2574 5.12938C15.5011 3.57561 15.2558 2.51797 14.4153 1.56044Z" fill="#27346A"/>
<path d="M6.79679 4.56966C6.90156 4.51977 7.01616 4.49391 7.13221 4.49398H11.9991C12.5754 4.49398 13.1129 4.53149 13.6042 4.61055C13.7416 4.63246 13.8784 4.65863 14.0142 4.68901C14.2067 4.73149 14.397 4.78349 14.5844 4.8448C14.8259 4.92546 15.0508 5.01939 15.2575 5.12938C15.5011 3.57501 15.2558 2.51797 14.4153 1.56044C13.4899 0.506183 11.8184 0.0541992 9.67942 0.0541992H3.471C3.03388 0.0541992 2.66202 0.372427 2.59351 0.803899L0.00866122 17.1971C-0.0427172 17.5209 0.207603 17.8132 0.534726 17.8132H4.36779L6.36472 5.14982C6.38435 5.02535 6.43393 4.90752 6.5092 4.80645C6.58446 4.70539 6.68316 4.62413 6.79679 4.56966Z" fill="#27346A"/>
<path d="M15.1943 5.49296C14.376 9.69617 11.5746 11.15 7.99675 11.15H6.17501C5.73796 11.15 5.36882 11.4683 5.30091 11.8998L4.10348 19.4907C4.05874 19.7736 4.27753 20.03 4.56376 20.03H7.79449C7.97956 20.0299 8.15854 19.9639 8.29924 19.8437C8.43994 19.7234 8.53313 19.557 8.56205 19.3742L8.59351 19.2095L9.20242 15.3504L9.24165 15.1372C9.27057 14.9544 9.36375 14.7879 9.50444 14.6677C9.64513 14.5475 9.82409 14.4814 10.0091 14.4813H10.4927C13.6223 14.4813 16.0729 13.2099 16.789 9.53267C17.0879 7.99597 16.9332 6.71296 16.1425 5.81178C15.9027 5.53883 15.6048 5.3134 15.2578 5.12939C15.2391 5.24822 15.2187 5.36863 15.1943 5.49296Z" fill="#2790C3"/>
<path d="M14.4018 4.7879C14.2742 4.75064 14.1454 4.71765 14.0156 4.68899C13.8797 4.65911 13.7429 4.63312 13.6055 4.61106C13.1138 4.53147 12.5766 4.4939 11.9998 4.4939H7.13352C7.01739 4.49364 6.90271 4.51971 6.7981 4.57017C6.68435 4.62447 6.58554 4.70569 6.51024 4.80678C6.43495 4.90787 6.38542 5.02579 6.36597 5.15033L5.33163 11.7086L5.30176 11.8998C5.3698 11.4682 5.73887 11.1499 6.17599 11.1499H7.99773C11.5755 11.1499 14.3769 9.69672 15.1952 5.49292C15.2196 5.36859 15.24 5.24811 15.2588 5.12936C15.0516 5.01996 14.8273 4.92544 14.5857 4.84532C14.5248 4.82511 14.4635 4.80597 14.4018 4.7879" fill="#1F264F"/>
</g>
<defs>
<clipPath id="clip0_77_1959">
<rect width="16.9934" height="20.0469" fill="white"/>
</clipPath>
</defs>
</svg>
