<svg width="20" height="20" viewBox="0 0 20 20" fill="none" xmlns="http://www.w3.org/2000/svg">
<path d="M10.2041 8.57083V12H15.9915C15.7577 13.4708 14.2432 16.3117 10.2041 16.3117C6.72194 16.3117 3.8784 13.4875 3.8784 10C3.8784 6.5125 6.72279 3.68833 10.2041 3.68833C12.1854 3.68833 13.5128 4.5125 14.273 5.22917L17.04 2.61417C15.2628 0.988333 12.9583 0 10.2041 0C4.56207 0 0 4.47083 0 10C0 15.5292 4.56207 20 10.2041 20C16.0935 20 20 15.9425 20 10.2283C20 9.57167 19.9277 9.07 19.8393 8.57083H10.2041Z" fill="#C60000"/>
</svg>
