<svg width="131" height="131" viewBox="0 0 131 131" fill="none" xmlns="http://www.w3.org/2000/svg">
<path d="M47.3702 75.5125C46.9609 81.1077 42.9736 85.4109 39.7462 90.0005C33.6424 98.6827 29.0761 107.727 31.0231 118.181C31.5493 121.005 32.5081 123.654 36.5013 126.641C34.6129 110.23 41.5645 96.9462 49.7147 83.8732C52.6263 79.2018 53.1876 74.1035 50.1006 68.7246C47.8847 70.9346 49.4633 73.8521 47.224 75.6587L47.3702 75.5125Z" fill="white"/>
<path d="M40.213 54.7104C41.6455 54.0263 41.2187 52.9739 41.3999 52.0794C41.8384 49.881 41.7624 46.8466 45.5393 47.2208C48.9713 47.5599 49.1642 50.6236 49.1291 52.8277C49.0122 60.3874 43.9023 65.6201 36.5764 69.5666C27.0698 74.6882 16.1951 76.8983 5.08656 78.5353C3.51382 78.7692 1.96446 79.0907 0 79.4474C12.4182 84.113 12.389 84.0604 23.404 79.7397C32.1272 76.3194 39.985 71.9929 46.2234 65.9534C50.5557 61.7614 53.3972 57.0022 51.801 51.2725C50.889 48.0101 49.0297 44.4145 44.2004 44.8237C38.8859 45.2739 39.4588 49.2087 39.757 52.4886C39.8155 53.2136 40.0435 53.9269 40.213 54.7104Z" fill="white"/>
<path d="M47.2232 75.6587C47.2934 74.1737 47.3635 72.6887 47.4278 71.2036C42.0665 79.3363 33.3784 85.1712 26.7834 92.345C20.7497 98.9166 18.7736 106.184 24.7254 114.083C24.4916 98.022 39.9559 88.3985 47.3635 75.5126C47.3694 75.5126 47.2232 75.6587 47.2232 75.6587Z" fill="white"/>
<path d="M42.8743 71.9695C36.3202 76.5942 28.8073 80.1781 22.2416 84.7093C15.0386 89.6789 13.46 94.6544 17.0732 102.308C21.1541 89.0475 35.3789 82.5928 42.8743 71.9695Z" fill="white"/>
<path d="M7.09375 65.819C11.6424 69.1282 13.7121 73.0396 19.7984 72.1684C25.9666 71.2856 32.0588 70.6425 37.9522 66.2283C31.6262 66.6434 27.247 64.9771 22.8153 63.0945C22.1956 66.164 26.1303 66.199 27.2587 68.3915C23.4877 69.0113 20.3597 68.4441 17.2201 67.7952C14.2968 67.193 11.3559 66.6492 7.09375 65.819Z" fill="white"/>
<path d="M49.1584 108.041H44.811V107.21H46.0531V96.4422H44.811V95.6197H52.8848V97.6843H51.9532V96.4422H47.8156V101.31H50.7111V100.278H51.542V103.173H50.7111V102.141H47.8156V107.21H49.1584V108.041Z" fill="white"/>
<path d="M60.1613 106.79C59.669 107.277 59.1794 107.644 58.6926 107.89C58.2058 108.13 57.7218 108.251 57.2406 108.251C56.4685 108.251 55.8251 108.007 55.3103 107.521C54.7956 107.028 54.5382 106.413 54.5382 105.674C54.5382 104.667 54.9466 103.915 55.7635 103.417C56.5804 102.913 57.8058 102.661 59.4396 102.661H59.7837V101.537C59.7837 100.211 59.2185 99.5475 58.0883 99.5475C57.4225 99.5475 56.8126 99.7965 56.2587 100.294L56.158 101.209H55.2264V99.4888C56.3958 98.9796 57.4756 98.725 58.466 98.725C60.4467 98.725 61.437 99.6342 61.437 101.453V105.515C61.437 106.645 61.7168 107.21 62.2763 107.21C62.3826 107.21 62.5169 107.191 62.6791 107.151L62.7883 108.041C62.3854 108.181 62.0273 108.251 61.714 108.251C60.8971 108.251 60.3795 107.764 60.1613 106.79ZM59.7837 106.337V103.484H59.3892C58.3597 103.484 57.5876 103.649 57.0728 103.979C56.558 104.303 56.3007 104.796 56.3007 105.456C56.3007 105.932 56.4545 106.326 56.7623 106.639C57.07 106.953 57.4589 107.109 57.9289 107.109C58.1918 107.109 58.4772 107.045 58.7849 106.916C59.0926 106.788 59.4256 106.595 59.7837 106.337Z" fill="white"/>
<path d="M71.0299 108.041V106.329C70.6271 106.967 70.1571 107.448 69.62 107.772C69.0884 108.091 68.4925 108.251 67.8323 108.251C66.8028 108.251 65.9831 107.845 65.3732 107.034C64.7633 106.217 64.4584 105.123 64.4584 103.752C64.4584 102.23 64.8081 101.013 65.5075 100.101C66.2069 99.1838 67.1357 98.725 68.2939 98.725C68.8254 98.725 69.3206 98.8285 69.7794 99.0355C70.2438 99.2426 70.6718 99.5531 71.0635 99.9671L71.0299 98.9264V95.6197H69.7878V94.7888H72.6917V107.21H73.9338V108.041H71.0299ZM71.0299 100.899C70.6327 100.552 70.2214 100.292 69.7962 100.118C69.371 99.9448 68.9345 99.858 68.4869 99.858C67.7763 99.858 67.2196 100.174 66.8168 100.806C66.4195 101.433 66.2209 102.303 66.2209 103.417C66.2209 104.614 66.3999 105.512 66.758 106.111C67.1217 106.709 67.6616 107.009 68.3778 107.009C68.8702 107.009 69.3374 106.883 69.7794 106.631C70.2214 106.379 70.6383 106.004 71.0299 105.506V100.899Z" fill="white"/>
<path d="M83.191 107.63C82.1391 108.044 81.174 108.251 80.2955 108.251C78.9639 108.251 77.8812 107.8 77.0475 106.9C76.2139 105.993 75.797 104.824 75.797 103.391C75.797 102.021 76.1719 100.902 76.9216 100.034C77.6714 99.1614 78.6338 98.725 79.8088 98.725C80.8942 98.725 81.7279 99.0915 82.3098 99.8245C82.8973 100.557 83.191 101.607 83.191 102.972V103.282H77.5595C77.5595 104.48 77.8225 105.417 78.3484 106.094C78.8744 106.771 79.6045 107.109 80.5389 107.109C81.4397 107.109 82.3238 106.869 83.191 106.388V107.63ZM77.6602 102.451H81.4369V102.242C81.4369 100.446 80.8634 99.5475 79.7164 99.5475C79.0898 99.5475 78.6058 99.7909 78.2645 100.278C77.9232 100.759 77.7218 101.483 77.6602 102.451Z" fill="white"/>
<path d="M85.818 107.579V105.557H86.8503V106.589C87.2251 106.863 87.5888 107.07 87.9413 107.21C88.2938 107.35 88.6351 107.42 88.9652 107.42C89.4968 107.42 89.9276 107.283 90.2577 107.009C90.5934 106.734 90.7613 106.379 90.7613 105.943C90.7613 105.283 90.2773 104.765 89.3093 104.39L88.4617 104.063C86.7328 103.391 85.8683 102.463 85.8683 101.276C85.8683 100.538 86.1621 99.928 86.7495 99.4468C87.3426 98.9656 88.0924 98.725 88.9988 98.725C89.452 98.725 89.908 98.767 90.3668 98.8509C90.8312 98.9348 91.2984 99.0635 91.7684 99.237V101.209H90.7361V100.169C90.4284 99.9615 90.1262 99.8077 89.8297 99.707C89.5387 99.6007 89.2506 99.5475 88.9652 99.5475C88.5288 99.5475 88.1623 99.6818 87.8658 99.9504C87.5692 100.219 87.421 100.549 87.421 100.941C87.421 101.299 87.5553 101.598 87.8238 101.839C88.0924 102.074 88.6099 102.348 89.3765 102.661L90.1486 102.98C90.9935 103.327 91.581 103.688 91.9111 104.063C92.2468 104.432 92.4147 104.91 92.4147 105.498C92.4147 106.309 92.0901 106.972 91.4411 107.487C90.7977 107.996 89.9556 108.251 88.9149 108.251C88.3722 108.251 87.8406 108.195 87.3203 108.083C86.8055 107.971 86.3047 107.803 85.818 107.579Z" fill="white"/>
<path d="M50.4257 127.685L49.6368 126.82C48.4283 127.604 47.2785 127.995 46.1874 127.995C45.0124 127.995 44.0221 127.609 43.2164 126.837C42.4107 126.065 42.0078 125.119 42.0078 124C42.0078 122.165 43.0541 120.909 45.1467 120.232C44.5033 119.236 44.1815 118.38 44.1815 117.664C44.1815 116.886 44.4585 116.24 45.0124 115.725C45.5663 115.205 46.2629 114.945 47.1022 114.945C47.9862 114.945 48.694 115.174 49.2256 115.633C49.7627 116.086 50.0313 116.687 50.0313 117.437C50.0313 118.825 49.0969 119.854 47.2281 120.526C48.2129 122.221 49.234 123.721 50.2915 125.024C50.8734 124.263 51.1643 123.217 51.1643 121.885H49.9222V121.055H53.3212V121.885H52.2889C52.2889 123.1 51.7994 124.361 50.8202 125.671L51.8441 126.854H52.7757V127.685H50.4257ZM49.1333 126.166C48.031 124.834 46.8336 123.094 45.5412 120.945C44.2878 121.488 43.6612 122.33 43.6612 123.472C43.6612 124.417 43.9857 125.217 44.6347 125.872C45.2838 126.527 46.0783 126.854 47.0183 126.854C47.796 126.854 48.501 126.625 49.1333 126.166ZM46.8085 119.812C47.9219 119.219 48.4786 118.369 48.4786 117.261C48.4786 116.763 48.3751 116.391 48.1681 116.145C47.9611 115.899 47.6505 115.775 47.2365 115.775C46.8392 115.775 46.5063 115.921 46.2378 116.212C45.9692 116.497 45.8349 116.858 45.8349 117.295C45.8349 117.86 46.1594 118.699 46.8085 119.812Z" fill="white"/>
<path d="M65.4236 121.256C66.4475 121.413 67.2532 121.787 67.8407 122.381C68.4338 122.968 68.7303 123.693 68.7303 124.554C68.7303 125.472 68.4002 126.23 67.74 126.829C67.3707 127.164 66.9595 127.391 66.5062 127.509C66.053 127.626 65.3676 127.685 64.45 127.685H60.027V126.854H61.2692V116.086H60.027V115.264H64.7186C65.8544 115.264 66.7189 115.499 67.3119 115.969C67.9106 116.439 68.21 117.121 68.21 118.016C68.21 118.749 67.9778 119.387 67.5134 119.93C67.049 120.467 66.3524 120.909 65.4236 121.256ZM63.0316 126.854H63.3002C64.5256 126.854 65.3452 126.736 65.7593 126.501C66.5202 126.059 66.9007 125.377 66.9007 124.454C66.9007 123.659 66.5622 122.999 65.8852 122.473C65.2138 121.941 64.3689 121.676 63.3506 121.676H63.0316V126.854ZM63.0316 120.853H63.4261C64.4332 120.853 65.1886 120.638 65.6921 120.207C66.1957 119.776 66.4475 119.133 66.4475 118.277C66.4475 117.493 66.2097 116.934 65.7341 116.598C65.2585 116.257 64.464 116.086 63.3506 116.086H63.0316V120.853Z" fill="white"/>
<path d="M78.2309 127.274C77.179 127.688 76.2139 127.895 75.3354 127.895C74.0038 127.895 72.9211 127.444 72.0874 126.543C71.2537 125.637 70.8369 124.468 70.8369 123.035C70.8369 121.664 71.2118 120.545 71.9615 119.678C72.7113 118.805 73.6736 118.369 74.8486 118.369C75.9341 118.369 76.7678 118.735 77.3497 119.468C77.9372 120.201 78.2309 121.25 78.2309 122.616V122.926H72.5994C72.5994 124.123 72.8624 125.061 73.3883 125.738C73.9142 126.415 74.6444 126.753 75.5788 126.753C76.4796 126.753 77.3637 126.513 78.2309 126.031V127.274ZM72.7001 122.095H76.4768V121.885C76.4768 120.089 75.9033 119.191 74.7563 119.191C74.1297 119.191 73.6457 119.435 73.3044 119.922C72.9631 120.403 72.7616 121.127 72.7001 122.095Z" fill="white"/>
<path d="M85.9858 126.434C85.4934 126.921 85.0039 127.288 84.5171 127.534C84.0303 127.774 83.5463 127.895 83.0651 127.895C82.293 127.895 81.6496 127.651 81.1348 127.164C80.62 126.672 80.3627 126.057 80.3627 125.318C80.3627 124.311 80.7711 123.558 81.588 123.06C82.4049 122.557 83.6302 122.305 85.264 122.305H85.6081V121.18C85.6081 119.854 85.043 119.191 83.9128 119.191C83.247 119.191 82.6371 119.44 82.0832 119.938L81.9825 120.853H81.0509V119.133C82.2203 118.623 83.3001 118.369 84.2905 118.369C86.2712 118.369 87.2615 119.278 87.2615 121.096V125.159C87.2615 126.289 87.5413 126.854 88.1008 126.854C88.2071 126.854 88.3414 126.834 88.5036 126.795L88.6127 127.685C88.2099 127.825 87.8518 127.895 87.5385 127.895C86.7216 127.895 86.204 127.408 85.9858 126.434ZM85.6081 125.981V123.128H85.2137C84.1842 123.128 83.412 123.293 82.8973 123.623C82.3825 123.947 82.1251 124.44 82.1251 125.1C82.1251 125.575 82.279 125.97 82.5867 126.283C82.8945 126.597 83.2833 126.753 83.7533 126.753C84.0163 126.753 84.3017 126.689 84.6094 126.56C84.9171 126.431 85.25 126.238 85.6081 125.981Z" fill="white"/>
<path d="M96.7034 127.685V125.973C96.2837 126.611 95.7997 127.092 95.2514 127.416C94.7031 127.735 94.0904 127.895 93.4134 127.895C92.6357 127.895 92.023 127.637 91.5754 127.122C91.1278 126.608 90.904 125.897 90.904 124.991V119.401H89.6618V118.57H92.5573V124.731C92.5573 125.447 92.6636 125.947 92.8763 126.233C93.0889 126.513 93.4582 126.652 93.9841 126.652C94.4373 126.652 94.8905 126.532 95.3437 126.292C95.7969 126.045 96.2501 125.682 96.7034 125.201V119.401H95.4612V118.57H98.3567V126.854H99.5988V127.685H96.7034Z" fill="white"/>
<path d="M106.582 127.634C106.173 127.808 105.756 127.895 105.331 127.895C104.391 127.895 103.7 127.648 103.258 127.156C102.816 126.664 102.595 125.892 102.595 124.84V119.502H101.353V118.57H102.595V116.917L104.257 116.506V118.57H106.582V119.502H104.257V125.058C104.257 125.69 104.369 126.166 104.593 126.485C104.816 126.804 105.149 126.963 105.591 126.963C105.877 126.963 106.207 126.876 106.582 126.703V127.634Z" fill="white"/>
<path d="M111.987 127.685L108.546 119.401H107.815V118.57H111.584V119.401H110.333L112.918 125.612L115.688 119.401H114.446V118.57H117.324V119.401H116.594L111.416 131H109.452L111.987 127.685Z" fill="white"/>
<path d="M108.838 74.8921C108.539 74.472 108.2 74.1899 108.108 73.8358C105.599 64.3585 99.1097 58.8126 90.9058 55.1033C85.6302 52.7205 80.6595 49.9655 76.5863 45.638C71.9896 40.7524 68.998 34.9664 67.5137 28.238C70.7124 33.874 75.2573 38.0574 80.3201 41.7007C84.3415 44.5937 88.7656 46.7004 93.1322 48.9332C102.067 53.5007 107.969 60.5352 109.097 71.2309C109.212 72.3773 109.494 73.5717 108.838 74.8921Z" fill="white"/>
<path d="M39.2872 56.6661C39.2872 48.133 39.2581 39.6 39.293 31.0669C39.3571 14.8156 52.0291 1.40486 68.5156 0.101039C84.6294 -1.17368 98.8039 9.74003 101.582 25.6595C101.908 27.5163 102.671 28.2206 104.499 28.5349C120.415 31.2939 131.352 45.5254 130.018 61.6137C128.661 77.9988 115.337 90.6703 99.2931 90.8042C93.0852 90.8566 86.8773 90.8391 80.6694 90.8042C76.4065 90.7809 73.5996 88.1616 73.6345 84.3549C73.6694 80.554 76.4706 78.0395 80.7858 78.0221C86.7026 77.993 92.6193 78.0395 98.536 78.0104C109.077 77.9522 117.294 69.6345 117.282 59.0758C117.27 48.7617 109.251 40.8747 98.6816 40.7757C97.7091 40.7641 96.7424 40.8107 95.7698 40.7641C91.9554 40.5895 89.4979 38.1157 89.3523 34.2799C89.2649 31.8643 89.4047 29.4546 88.8515 27.0506C86.7724 18.0461 78.5088 12.0508 69.2086 12.9006C59.8734 13.7563 52.4309 21.3697 52.1165 30.479C52.0175 33.3835 52.1689 36.2997 52.0641 39.2042C52.0058 40.8223 52.5125 41.4393 54.1897 41.3869C57.3868 41.2763 60.5897 41.3229 63.7927 41.3636C67.9041 41.416 70.647 43.9305 70.7111 47.6441C70.781 51.4566 67.9682 54.0992 63.7286 54.1516C60.9159 54.1865 58.0914 54.3204 55.2961 54.1108C52.8269 53.9304 51.9651 54.5648 52.0233 57.2423C52.2096 66.1596 52.0873 75.0826 52.099 83.9999C52.1048 86.6424 51.1032 88.7321 48.7563 90.0126C46.5259 91.2349 44.2605 91.1127 42.1407 89.7158C40.0035 88.3072 39.2639 86.2175 39.2755 83.7147C39.3105 74.7043 39.2872 65.6823 39.2872 56.6661Z" fill="white"/>
</svg>
