<svg width="48" height="48" viewBox="0 0 48 48" fill="none" xmlns="http://www.w3.org/2000/svg">
<path d="M47.9986 2.62C47.6686 3.12125 47.3811 3.65875 46.9998 4.12C42.0561 10.1062 37.0998 16.0812 32.1461 22.0588C32.0973 22.1187 32.0486 22.1787 31.9648 22.2812C32.0786 22.4013 32.1898 22.5225 32.3061 22.6388C36.7273 27.0613 41.1486 31.4837 45.5698 35.905C47.2848 37.62 47.2873 39.6537 45.5711 41.37C43.5423 43.4 41.5136 45.4287 39.4836 47.4562C39.3623 47.5775 39.2423 47.7062 39.0998 47.795C38.7998 47.9825 38.4948 47.9488 38.2436 47.705C37.9923 47.4625 37.9423 47.1588 38.1236 46.8525C38.2086 46.7075 38.3398 46.5875 38.4611 46.4675C39.7936 45.1312 41.1286 43.7987 42.4623 42.4637C42.5698 42.3563 42.6711 42.2412 42.7586 42.1475C42.4348 41.8225 42.1311 41.5163 41.7886 41.1725C41.7036 41.2525 41.5811 41.3638 41.4636 41.48C40.1286 42.8138 38.7948 44.1488 37.4598 45.4813C37.3386 45.6012 37.2186 45.7325 37.0736 45.8175C36.7648 46.0013 36.4636 45.9375 36.2248 45.6862C35.9848 45.4325 35.9473 45.1288 36.1448 44.83C36.2386 44.6888 36.3686 44.57 36.4886 44.45C37.9211 43.0175 39.3548 41.5863 40.7648 40.1775C40.4373 39.8375 40.1298 39.5175 39.7986 39.1738C39.7098 39.2563 39.5948 39.355 39.4886 39.4613C38.1761 40.7725 36.8636 42.085 35.5511 43.3975C35.4623 43.4862 35.3773 43.5775 35.2848 43.6613C34.9398 43.9725 34.5236 43.99 34.2398 43.7088C33.9598 43.43 33.9686 42.9937 34.2836 42.6662C34.6836 42.25 35.0973 41.8487 35.5061 41.44C36.6073 40.34 37.7086 39.2412 38.8148 38.1362C38.4723 37.795 38.1561 37.4788 37.8111 37.1338C36.3861 38.565 34.9673 39.9887 33.5473 41.4125C33.4261 41.5337 33.3098 41.6637 33.1723 41.7637C32.8511 41.9975 32.5198 41.9825 32.2411 41.7025C31.9623 41.4212 31.9561 41.09 32.1923 40.7713C32.2848 40.6475 32.4036 40.5425 32.5136 40.4325C33.9361 39.0112 35.3586 37.59 36.8186 36.1325C36.4598 35.8337 36.1173 35.5487 35.7423 35.2375C35.7036 35.2738 35.5773 35.385 35.4598 35.5025C34.1248 36.8363 32.7911 38.1712 31.4561 39.5037C31.3461 39.6138 31.2386 39.7337 31.1086 39.8138C30.7848 40.0125 30.4723 39.9588 30.2223 39.685C29.9861 39.4263 29.9611 39.1237 30.1611 38.8275C30.2473 38.7 30.3648 38.5913 30.4748 38.4813C31.7973 37.1575 33.1211 35.8337 34.4436 34.51C34.5636 34.39 34.6786 34.265 34.7948 34.1437C34.4598 33.8175 34.1411 33.5062 33.7948 33.17C33.0623 33.9025 32.3161 34.65 31.5686 35.3975C30.8523 36.1138 30.1361 36.8325 29.4173 37.5475C28.9861 37.9762 28.5536 38.0325 28.2398 37.71C27.9273 37.3887 27.9923 36.975 28.4336 36.535C29.8886 35.08 31.3461 33.6275 32.8273 32.15C32.4773 31.8375 32.1448 31.54 31.6898 31.1325C31.6511 31.2013 31.5948 31.3775 31.4773 31.495C30.1823 32.8025 28.8798 34.1012 27.5786 35.4025C27.5011 35.48 27.4261 35.5588 27.3461 35.6338C26.9586 35.9975 26.5336 36.025 26.2361 35.7088C25.9373 35.3913 25.9648 35.0125 26.3361 34.635C26.9261 34.0337 27.5261 33.4425 28.1211 32.8475C29.0136 31.9562 29.9048 31.065 30.8161 30.155C30.4723 29.8288 30.1511 29.5225 29.8086 29.1963C29.7036 29.295 29.5786 29.4075 29.4598 29.5263C28.1023 30.8813 26.7548 32.2463 25.3798 33.585C25.1923 33.7675 24.8586 33.93 24.6161 33.9012C24.0061 33.8312 23.8548 33.1325 24.3311 32.6512C25.4698 31.4962 26.6198 30.3525 27.7698 29.2087C28.1223 28.8587 28.4873 28.5212 28.8373 28.1863C28.4611 27.8063 28.1336 27.4775 27.7823 27.1238C24.8148 30.4725 21.8511 33.8175 18.8898 37.16C21.3236 39.8537 21.0273 43.2675 19.3811 45.4162C17.6261 47.7075 14.5773 48.5425 11.9211 47.4338C10.4236 46.805 9.32608 45.7388 8.62358 44.2762C7.99983 42.98 7.94108 42.11 8.26358 39.6975C7.10983 40.0125 5.96108 40.05 4.80483 39.7575C1.86983 39.015 -0.0676672 36.2875 0.101083 33.1225C0.249833 30.325 2.57983 27.8187 5.41108 27.4112C7.74108 27.0763 9.66983 27.8337 11.2423 29.5562C11.5811 29.9275 11.5823 30.3237 11.2561 30.6262C10.9448 30.9137 10.5073 30.885 10.1861 30.5175C9.33108 29.5375 8.27733 28.9487 6.97733 28.7875C4.47983 28.4775 2.07858 30.2013 1.59733 32.6688C0.988583 35.79 3.36733 38.6225 6.55233 38.5475C7.74733 38.52 8.81483 38.105 9.68608 37.2788C10.5223 36.485 11.3523 35.68 12.1336 34.8312C13.7173 33.1087 13.8261 30.7212 12.4523 28.8275C12.0511 28.275 12.0761 28.01 12.5948 27.55C15.1698 25.26 17.7461 22.9725 20.3223 20.685C20.4961 20.53 20.6711 20.3762 20.8236 20.24C20.4836 19.9075 20.1573 19.585 19.7111 19.1475C19.6698 19.22 19.6123 19.3988 19.4948 19.5163C18.1898 20.835 16.8748 22.145 15.5623 23.4575C15.4848 23.535 15.4111 23.615 15.3298 23.6875C14.9598 24.0212 14.5423 24.035 14.2536 23.7237C13.9661 23.4137 13.9823 23.04 14.3298 22.6863C15.0736 21.93 15.8273 21.1838 16.5773 20.4338C17.3261 19.685 18.0736 18.9375 18.7998 18.2125C18.4636 17.8775 18.1498 17.565 17.7411 17.1575C17.6286 17.3075 17.5073 17.5112 17.3461 17.675C16.0398 18.9925 14.7336 20.3113 13.4023 21.6038C13.2148 21.7863 12.8798 21.945 12.6373 21.9163C12.0261 21.8438 11.8798 21.1475 12.3561 20.665C13.4073 19.5988 14.4686 18.5437 15.5298 17.4875C15.9711 17.0487 16.4198 16.6187 16.8423 16.2062C16.4923 15.8375 16.1836 15.5113 15.8523 15.1625C14.3936 16.625 12.9523 18.0725 11.5098 19.5175C11.4111 19.6162 11.3186 19.7288 11.2048 19.8062C10.8798 20.0238 10.5461 20.0163 10.2723 19.7313C10.0148 19.4638 10.0073 19.14 10.2186 18.8337C10.3148 18.695 10.4498 18.5812 10.5698 18.46C11.9923 17.0387 13.4148 15.6175 14.8598 14.1725C14.5123 13.8512 14.1836 13.5475 13.7736 13.1687C13.5286 13.4437 13.2623 13.77 12.9673 14.0675C11.8373 15.2087 10.6986 16.3413 9.56233 17.4775C9.47358 17.5663 9.38983 17.6588 9.29483 17.7388C8.95608 18.0288 8.56983 18.0338 8.28733 17.7588C7.98483 17.4625 7.97983 17.065 8.31733 16.7225C9.25733 15.7662 10.2098 14.8225 11.1586 13.8737C11.7186 13.3137 12.2798 12.7563 12.8223 12.2163C12.4886 11.8763 12.1873 11.5688 11.8461 11.22C11.7536 11.3075 11.6311 11.4187 11.5148 11.535C10.1573 12.8912 8.80858 14.2537 7.43733 15.595C7.25358 15.775 6.95858 15.9475 6.72233 15.9375C6.51608 15.9288 6.20983 15.6925 6.14983 15.495C6.08358 15.2762 6.16983 14.925 6.32233 14.7425C6.73108 14.2537 7.20983 13.825 7.66233 13.3725C8.72108 12.315 9.77983 11.2575 10.8186 10.2212C10.4898 9.8875 10.1786 9.57125 9.84108 9.23C9.75358 9.31125 9.63108 9.42 9.51483 9.53625C8.14733 10.9025 6.78108 12.2712 5.41108 13.6375C5.02858 14.0188 4.61108 14.0637 4.30108 13.7712C3.97858 13.4662 4.02358 13.0363 4.42108 12.6287C4.47608 12.5725 4.53108 12.5188 4.58608 12.4637C5.89858 11.1512 7.21108 9.84 8.52233 8.52625C8.63108 8.4175 8.73483 8.305 8.85733 8.17625C8.52108 7.85 8.20108 7.54 7.82733 7.17875C7.29983 7.72375 6.77483 8.27625 6.23858 8.8175C5.29483 9.77 4.34608 10.7188 3.39358 11.6613C3.00608 12.045 2.59483 12.0725 2.28608 11.7587C1.96983 11.4375 2.00358 11.0525 2.40108 10.6538C3.87858 9.17375 5.35733 7.7 6.87358 6.185C6.51483 5.8875 6.17233 5.605 5.79608 5.29375C5.75983 5.3275 5.63483 5.4375 5.51733 5.555C4.19233 6.87625 2.86983 8.2 1.54483 9.52125C1.42358 9.6425 1.30358 9.77 1.16108 9.86C0.859833 10.05 0.556083 10.0125 0.306083 9.7675C0.0410828 9.5075 0.0123328 9.19125 0.213583 8.875C0.296083 8.74625 0.414833 8.63875 0.524833 8.52875C2.57483 6.4775 4.62483 4.425 6.67733 2.37625C8.32608 0.73125 10.3961 0.7325 12.0448 2.38125C16.4673 6.80125 20.8898 11.2238 25.3086 15.6475C25.4286 15.7688 25.5211 15.9175 25.6436 16.075C26.8273 15.07 27.9323 14.11 29.0611 13.18C34.1861 8.9575 39.3161 4.74 44.4523 0.53125C44.7236 0.30875 45.0673 0.175 45.3773 0C45.6898 0 46.0011 0 46.3136 0C47.1586 0.2775 47.7248 0.835 47.9973 1.68375C47.9986 1.99625 47.9986 2.3075 47.9986 2.62ZM45.9223 3.22C45.8786 3.17375 45.8336 3.12625 45.7898 3.08C45.6823 3.23 45.5936 3.3975 45.4648 3.52625C36.7036 12.295 27.9386 21.06 19.1736 29.825C19.0411 29.9575 18.9161 30.1012 18.7673 30.2113C18.4486 30.45 18.1186 30.4325 17.8398 30.15C17.5611 29.8675 17.5523 29.5387 17.7948 29.2213C17.8986 29.0863 18.0298 28.9725 18.1511 28.8512C26.9486 20.0525 35.7461 11.2537 44.5423 2.45375C44.6686 2.3275 44.7898 2.195 44.9123 2.065C34.2998 10.505 23.9461 19.2437 13.8673 28.2925C13.8973 28.3775 13.9048 28.425 13.9273 28.4638C15.4223 30.8838 15.0161 34.165 12.7811 36.2238C11.9798 36.9613 11.2023 37.7388 10.5073 38.575C9.17108 40.1838 9.08858 42.485 10.2223 44.245C11.3523 45.9987 13.5023 46.8612 15.5073 46.3425C17.3711 45.86 18.5923 44.675 19.0748 42.8225C19.5686 40.9275 19.0336 39.2863 17.6086 37.9425C17.0561 37.4212 17.0298 37.1312 17.5173 36.5662C17.8986 36.125 18.2861 35.69 18.6873 35.2325C17.6911 34.5737 17.0986 33.7113 16.8798 32.6C16.7723 32.0525 16.9686 31.6725 17.4148 31.5725C17.8273 31.4813 18.1548 31.7425 18.2573 32.2875C18.4148 33.1287 18.8998 33.7125 19.6523 34.1525C28.6861 24.0688 37.4523 13.77 45.9223 3.22ZM43.8773 41.0612C44.1023 40.8325 44.3523 40.5775 44.6048 40.325C45.7173 39.2088 45.7161 38.0688 44.5948 36.9463C41.3111 33.6613 38.0261 30.3775 34.7423 27.0925C33.5098 25.8588 32.2798 24.6213 31.0248 23.3638C30.2511 24.2612 29.5036 25.1287 28.7786 25.9675C33.8311 31.0175 38.8436 36.0275 43.8773 41.0612ZM6.96733 4.06875C12.0236 9.12625 17.0311 14.135 22.0611 19.1663C22.8711 18.4675 23.7273 17.7275 24.6948 16.8925C24.5173 16.7725 24.3536 16.6963 24.2336 16.5763C22.1573 14.5087 20.0873 12.435 18.0148 10.3625C15.6561 8.00375 13.2998 5.64375 10.9373 3.28875C9.97233 2.3275 8.75608 2.33125 7.79108 3.2775C7.50233 3.56125 7.20733 3.83875 6.96733 4.06875Z" fill="#008080"/>
</svg>
