<svg width="18" height="20" viewBox="0 0 18 20" fill="none" xmlns="http://www.w3.org/2000/svg">
<path d="M4.89797 19.6255C4.50365 19.3632 4.15417 19.039 3.86297 18.6655C3.54265 18.28 3.24586 17.8755 2.97422 17.4543C2.33677 16.5204 1.83687 15.4998 1.48984 14.4236C1.07297 13.1736 0.871094 11.9755 0.871094 10.8036C0.871094 9.49489 1.15422 8.35239 1.70797 7.39239C2.11846 6.64204 2.72198 6.015 3.45609 5.57614C4.16754 5.13425 4.98499 4.89242 5.82234 4.87614C6.11547 4.87614 6.43109 4.91864 6.76609 4.99989C7.00672 5.06802 7.29984 5.17552 7.65797 5.30927C8.11359 5.48489 8.36422 5.59239 8.44922 5.61864C8.71609 5.71614 8.94047 5.75864 9.11672 5.75864C9.25047 5.75864 9.43922 5.71614 9.65359 5.65114C9.77422 5.60864 10.0017 5.53364 10.3273 5.39427C10.6498 5.27677 10.9036 5.17614 11.1055 5.10114C11.4148 5.00989 11.7142 4.92552 11.9811 4.88302C12.2975 4.83314 12.6186 4.81993 12.938 4.84364C13.4915 4.87982 14.0367 4.99711 14.5561 5.19177C15.4055 5.53364 16.0923 6.06739 16.6036 6.82614C16.3875 6.95933 16.1847 7.11295 15.998 7.28489C15.5915 7.64525 15.2452 8.06831 14.9723 8.53802C14.6157 9.17993 14.4307 9.90305 14.4355 10.6374C14.4486 11.5393 14.6798 12.3336 15.1355 13.0205C15.4704 13.5296 15.9058 13.9649 16.4148 14.2999C16.6755 14.4755 16.8998 14.5961 17.1148 14.6774C17.0142 14.9899 16.9067 15.2924 16.7798 15.5924C16.4921 16.2651 16.1433 16.9101 15.738 17.5193C15.3767 18.0436 15.0936 18.4343 14.8786 18.6943C14.5436 19.0911 14.2211 19.3943 13.8955 19.6055C13.5373 19.843 13.1142 19.9699 12.6842 19.9699C12.393 19.9811 12.1019 19.9458 11.8217 19.8655C11.5811 19.7843 11.343 19.6961 11.1086 19.5955C10.8649 19.4836 10.6137 19.389 10.3567 19.3124C9.72153 19.1492 9.05555 19.1482 8.41984 19.3093C8.15922 19.3843 7.90859 19.4718 7.66109 19.5793C7.31297 19.7255 7.08172 19.8236 6.94797 19.8655C6.68109 19.9436 6.40422 19.9924 6.12422 20.0086C5.69109 20.0086 5.28734 19.8849 4.88734 19.6343L4.89797 19.6255ZM10.6105 4.24114C10.0442 4.52427 9.50359 4.64489 8.96672 4.60552C8.88234 4.06489 8.96672 3.51177 9.19109 2.90614C9.38212 2.39306 9.66437 1.91876 10.0242 1.50614C10.4042 1.07178 10.8653 0.715753 11.3817 0.458018C11.9317 0.174893 12.4561 0.0217676 12.9573 -0.000732422C13.0223 0.565518 12.9573 1.12239 12.7492 1.72427C12.5566 2.25632 12.2749 2.75172 11.9161 3.18927C11.5499 3.62422 11.1005 3.98163 10.5942 4.24052L10.6105 4.24114Z" fill="#5A5A5A"/>
</svg>
